# Blender 4.3.0
# www.blender.org
o Attach.R
v 38.329693 1.552959 -1.722517
v 122.331253 2.961704 -1.765793
v 38.331329 3.052952 -1.727577
v 122.331253 2.961704 -1.765793
v 38.329693 1.552959 -1.722517
v 122.329628 1.461716 -1.760733
v 38.331402 1.565502 1.997462
v 122.332970 2.974247 1.954185
v 122.331329 1.474258 1.959246
v 122.332970 2.974247 1.954185
v 38.331402 1.565502 1.997462
v 38.333035 3.065491 1.992399
v 38.333035 3.065491 1.992399
v 122.331253 2.961704 -1.765793
v 122.332970 2.974247 1.954185
v 122.331253 2.961704 -1.765793
v 38.333035 3.065491 1.992399
v 38.331329 3.052952 -1.727577
v 38.331402 1.565502 1.997462
v 38.331329 3.052952 -1.727577
v 38.333035 3.065491 1.992399
v 38.331329 3.052952 -1.727577
v 38.331402 1.565502 1.997462
v 38.329693 1.552959 -1.722517
v 122.331329 1.474258 1.959246
v 38.329693 1.552959 -1.722517
v 38.331402 1.565502 1.997462
v 38.329693 1.552959 -1.722517
v 122.331329 1.474258 1.959246
v 122.329628 1.461716 -1.760733
v 122.332970 2.974247 1.954185
v 122.329628 1.461716 -1.760733
v 122.331329 1.474258 1.959246
v 122.329628 1.461716 -1.760733
v 122.332970 2.974247 1.954185
v 122.331253 2.961704 -1.765793
v -2.665944 1.559792 -1.806439
v 81.334778 3.017754 -1.738986
v -2.665187 3.059792 -1.808963
v 81.334778 3.017754 -1.738986
v -2.665944 1.559792 -1.806439
v 81.334007 1.517754 -1.736461
v -2.669039 1.566048 1.913556
v 81.331673 3.024010 1.981008
v 81.330917 1.524010 1.983531
v 81.331673 3.024010 1.981008
v -2.669039 1.566048 1.913556
v -2.668282 3.066048 1.911031
v -2.668282 3.066048 1.911031
v 81.334778 3.017754 -1.738986
v 81.331673 3.024010 1.981008
v 81.334778 3.017754 -1.738986
v -2.668282 3.066048 1.911031
v -2.665187 3.059792 -1.808963
v -2.669039 1.566048 1.913556
v -2.665187 3.059792 -1.808963
v -2.668282 3.066048 1.911031
v -2.665187 3.059792 -1.808963
v -2.669039 1.566048 1.913556
v -2.665944 1.559792 -1.806439
v 81.330917 1.524010 1.983531
v -2.665944 1.559792 -1.806439
v -2.669039 1.566048 1.913556
v -2.665944 1.559792 -1.806439
v 81.330917 1.524010 1.983531
v 81.334007 1.517754 -1.736461
v 81.331673 3.024010 1.981008
v 81.334007 1.517754 -1.736461
v 81.330917 1.524010 1.983531
v 81.334007 1.517754 -1.736461
v 81.331673 3.024010 1.981008
v 81.334778 3.017754 -1.738986
vn -0.0005 -0.0034 -1.0000
vn 0.0005 0.0034 1.0000
vn 0.0011 1.0000 -0.0034
vn -1.0000 0.0011 0.0005
vn -0.0011 -1.0000 0.0034
vn 1.0000 -0.0011 -0.0005
vn 0.0008 -0.0017 -1.0000
vn -0.0008 0.0017 1.0000
vn 0.0005 1.0000 -0.0017
vn -1.0000 0.0005 -0.0008
vn -0.0005 -1.0000 0.0017
vn 1.0000 -0.0005 0.0008
vt 0.731748 0.503969
vt 0.722751 0.503808
vt 0.731748 -0.000000
vt 0.794728 0.000000
vt 0.803725 0.000161
vt 0.794728 0.503969
vt 0.830716 0.503969
vt 0.821719 0.000161
vt 0.830716 -0.000000
vt 0.839712 0.503808
vt 0.468353 0.000000
vt 0.468355 0.503889
vt 0.446039 0.503889
vt 0.512963 0.503889
vt 0.512963 0.000000
vt 0.535278 0.000000
vt 0.603188 0.717291
vt 0.611533 0.720656
vt 0.603188 0.741351
vt 0.031313 0.715061
vt 0.022315 0.715061
vt 0.022315 0.692746
vt 0.022315 0.000000
vt 0.044608 0.503395
vt 0.022315 0.504383
vt 0.066902 0.504383
vt 0.044608 0.000987
vt 0.066902 0.000000
vt 0.319104 0.715582
vt 0.328102 0.715582
vt 0.328102 0.737897
vt 0.319104 0.741315
vt 0.310759 0.737950
vt 0.319104 0.717254
vt 0.722751 0.503969
vt 0.713754 0.503808
vt 0.722751 0.000000
vt 0.749742 0.000000
vt 0.758739 0.000161
vt 0.749742 0.503969
vt 0.731748 0.503889
vt 0.731748 -0.000000
vt 0.740746 -0.000000
vt 0.758739 0.000000
vt 0.767735 0.503808
vt 0.758739 0.503969
vt 0.111510 -0.000000
vt 0.133803 0.503395
vt 0.111510 0.504383
vt 0.156096 0.504383
vt 0.133803 0.000987
vt 0.156096 -0.000000
vt 0.310759 0.693193
vt 0.319104 0.696558
vt 0.310759 0.717254
vt 0.066652 0.602567
vt 0.058307 0.599202
vt 0.066652 0.578506
vt 0.111510 -0.000000
vt 0.111510 0.503889
vt 0.089195 0.503889
vt 0.089195 0.504383
vt 0.066902 0.000987
vt 0.089195 0.000000
vt 0.319104 0.693267
vt 0.328102 0.693267
vt 0.341865 0.715508
vt 0.332867 0.715508
vt 0.332867 0.693193
s 1
f 1/1/1 3/2/1 2/3/1
f 4/4/1 6/5/1 5/6/1
f 7/7/2 9/8/2 8/9/2
f 10/9/2 12/10/2 11/7/2
f 13/11/3 15/12/3 14/13/3
f 16/14/3 18/15/3 17/16/3
f 19/17/4 21/18/4 20/19/4
f 22/20/4 24/21/4 23/22/4
f 25/23/5 27/24/5 26/25/5
f 28/26/5 30/27/5 29/28/5
f 31/29/6 33/30/6 32/31/6
f 34/32/6 36/33/6 35/34/6
f 37/35/7 39/36/7 38/37/7
f 40/38/7 42/39/7 41/40/7
f 43/41/8 45/42/8 44/43/8
f 46/44/8 48/45/8 47/46/8
f 49/47/9 51/48/9 50/49/9
f 52/50/9 54/51/9 53/52/9
f 55/53/10 57/54/10 56/55/10
f 58/56/10 60/57/10 59/58/10
f 61/59/11 63/60/11 62/61/11
f 64/62/11 66/63/11 65/64/11
f 67/65/12 69/66/12 68/30/12
f 70/67/12 72/68/12 71/69/12
