# Blender 4.3.0
# www.blender.org
o Attach.L
v 26.573387 -1.614872 1.784275
v 110.576363 -2.932358 1.905510
v 26.576643 -3.114853 1.791122
v 110.576363 -2.932358 1.905510
v 26.573387 -1.614872 1.784275
v 110.573112 -1.432381 1.898661
v 26.578489 -1.631844 -1.935685
v 110.581467 -2.949329 -1.814447
v 110.578209 -1.449348 -1.821297
v 110.581467 -2.949329 -1.814447
v 26.578489 -1.631844 -1.935685
v 26.581749 -3.131824 -1.928835
v 26.581749 -3.131824 -1.928835
v 110.576363 -2.932358 1.905510
v 110.581467 -2.949329 -1.814447
v 110.576363 -2.932358 1.905510
v 26.581749 -3.131824 -1.928835
v 26.576643 -3.114853 1.791122
v 26.578489 -1.631844 -1.935685
v 26.576643 -3.114853 1.791122
v 26.581749 -3.131824 -1.928835
v 26.576643 -3.114853 1.791122
v 26.578489 -1.631844 -1.935685
v 26.573387 -1.614872 1.784275
v 110.578209 -1.449348 -1.821297
v 26.573387 -1.614872 1.784275
v 26.578489 -1.631844 -1.935685
v 26.573387 -1.614872 1.784275
v 110.578209 -1.449348 -1.821297
v 110.573112 -1.432381 1.898661
v 110.581467 -2.949329 -1.814447
v 110.573112 -1.432381 1.898661
v 110.578209 -1.449348 -1.821297
v 110.573112 -1.432381 1.898661
v 110.581467 -2.949329 -1.814447
v 110.576363 -2.932358 1.905510
v -2.668258 -1.590996 1.811358
v 81.332489 -3.048950 1.819944
v -2.667504 -3.090996 1.813883
v 81.332489 -3.048950 1.819944
v -2.668258 -1.590996 1.811358
v 81.331726 -1.548954 1.817419
v -2.667985 -1.597252 -1.908638
v 81.332756 -3.055206 -1.900051
v 81.332001 -1.555210 -1.902576
v 81.332756 -3.055206 -1.900051
v -2.667985 -1.597252 -1.908638
v -2.667231 -3.097248 -1.906112
v -2.667231 -3.097248 -1.906112
v 81.332489 -3.048950 1.819944
v 81.332756 -3.055206 -1.900051
v 81.332489 -3.048950 1.819944
v -2.667231 -3.097248 -1.906112
v -2.667504 -3.090996 1.813883
v -2.667985 -1.597252 -1.908638
v -2.667504 -3.090996 1.813883
v -2.667231 -3.097248 -1.906112
v -2.667504 -3.090996 1.813883
v -2.667985 -1.597252 -1.908638
v -2.668258 -1.590996 1.811358
v 81.332001 -1.555210 -1.902576
v -2.668258 -1.590996 1.811358
v -2.667985 -1.597252 -1.908638
v -2.668258 -1.590996 1.811358
v 81.332001 -1.555210 -1.902576
v 81.331726 -1.548954 1.817419
v 81.332756 -3.055206 -1.900051
v 81.331726 -1.548954 1.817419
v 81.332001 -1.555210 -1.902576
v 81.331726 -1.548954 1.817419
v 81.332756 -3.055206 -1.900051
v 81.332489 -3.048950 1.819944
vn -0.0014 0.0046 1.0000
vn 0.0014 -0.0046 -1.0000
vn 0.0022 -1.0000 0.0046
vn -1.0000 -0.0022 -0.0014
vn -0.0022 1.0000 -0.0046
vn 1.0000 0.0022 0.0014
vn -0.0001 0.0017 1.0000
vn 0.0001 -0.0017 -1.0000
vn 0.0005 -1.0000 0.0017
vn -1.0000 -0.0005 -0.0001
vn -0.0005 1.0000 -0.0017
vn 1.0000 0.0005 0.0001
vt 0.821719 0.503969
vt 0.812723 0.503808
vt 0.821719 0.000000
vt 0.848710 0.000000
vt 0.857708 0.000000
vt 0.857708 0.503889
vt 0.803725 0.503889
vt 0.803725 0.000000
vt 0.812723 0.000000
vt 0.794728 0.000000
vt 0.794728 0.503889
vt 0.785730 0.503889
vt 0.646810 0.503889
vt 0.646809 -0.000000
vt 0.669124 -0.000000
vt 0.691439 -0.000000
vt 0.691439 0.503889
vt 0.669124 0.503889
vt 0.286482 0.724950
vt 0.278137 0.721585
vt 0.286482 0.700889
vt 0.568123 0.695623
vt 0.576468 0.698988
vt 0.568123 0.719684
vt 0.490648 0.504383
vt 0.468354 0.000987
vt 0.490648 -0.000000
vt 0.579908 -0.000000
vt 0.602201 0.503395
vt 0.579908 0.504383
vt 0.166779 0.731243
vt 0.158434 0.727878
vt 0.166779 0.707182
vt 0.568123 0.719684
vt 0.577121 0.719684
vt 0.577121 0.741999
vt 0.749742 0.503969
vt 0.740746 0.503808
vt 0.749742 -0.000000
vt 0.767735 0.000000
vt 0.776733 0.000000
vt 0.776733 0.503889
vt 0.839712 0.503889
vt 0.839712 0.000000
vt 0.848710 0.000000
vt 0.776733 0.000000
vt 0.785730 0.503808
vt 0.776734 0.503969
vt 0.178390 0.504383
vt 0.156096 0.000987
vt 0.178390 0.000000
vt 0.557592 0.000000
vt 0.557593 0.503889
vt 0.535278 0.503889
vt 0.351564 0.736457
vt 0.343219 0.733092
vt 0.351564 0.712396
vt 0.603188 0.693230
vt 0.611533 0.696595
vt 0.603188 0.717291
vt 0.222998 0.504383
vt 0.200705 0.000987
vt 0.222998 0.000000
vt 0.267628 0.000000
vt 0.289921 0.503395
vt 0.267628 0.504383
vt 0.030660 0.739122
vt 0.022315 0.735757
vt 0.030660 0.715061
vt 0.332867 0.715508
vt 0.341213 0.718873
vt 0.332867 0.739569
s 1
f 1/1/1 3/2/1 2/3/1
f 4/4/1 6/5/1 5/6/1
f 7/7/2 9/8/2 8/9/2
f 10/10/2 12/11/2 11/12/2
f 13/13/3 15/14/3 14/15/3
f 16/16/3 18/17/3 17/18/3
f 19/19/4 21/20/4 20/21/4
f 22/22/4 24/23/4 23/24/4
f 25/25/5 27/26/5 26/27/5
f 28/28/5 30/29/5 29/30/5
f 31/31/6 33/32/6 32/33/6
f 34/34/6 36/35/6 35/36/6
f 37/37/7 39/38/7 38/39/7
f 40/40/7 42/41/7 41/42/7
f 43/43/8 45/44/8 44/45/8
f 46/46/8 48/47/8 47/48/8
f 49/49/9 51/50/9 50/51/9
f 52/52/9 54/53/9 53/54/9
f 55/55/10 57/56/10 56/57/10
f 58/58/10 60/59/10 59/60/10
f 61/61/11 63/62/11 62/63/11
f 64/64/11 66/65/11 65/66/11
f 67/67/12 69/68/12 68/69/12
f 70/70/12 72/71/12 71/72/12
