# Blender 4.2.0
# www.blender.org
o Cylinder.031
v 0.077271 0.072039 -2.911480
v 0.044219 0.094124 -2.911480
v 0.005231 0.101879 -2.911480
v -0.033757 0.094124 -2.911480
v -0.066809 0.072039 -2.911480
v -0.088894 0.038987 -2.911480
v -0.096649 -0.000001 -2.911480
v -0.088894 -0.038989 -2.911480
v -0.066809 -0.072041 -2.911480
v -0.033757 -0.094126 -2.911480
v 0.005231 -0.101881 -2.911480
v 0.044219 -0.094126 -2.911480
v 0.077271 -0.072041 -2.911480
v 0.099356 -0.038989 -2.911480
v 0.107111 -0.000001 -2.911480
v 0.099356 0.038987 -2.911480
v -0.096649 -0.000001 -3.083107
v -0.088894 0.038987 -3.083107
v -0.088894 -0.038989 -3.083107
v -0.066809 -0.072041 -3.083107
v -0.033757 -0.094126 -3.083107
v 0.005231 -0.101881 -3.083107
v 0.044219 -0.094126 -3.083107
v 0.077271 -0.072041 -3.083107
v 0.099356 -0.038989 -3.083107
v 0.107111 -0.000001 -3.083107
v -0.066809 0.072039 -3.083107
v -0.033757 0.094124 -3.083107
v 0.005231 0.101879 -3.083107
v 0.044219 0.094124 -3.083107
v 0.077271 0.072039 -3.083107
v 0.099356 0.038987 -3.083107
v 0.065799 -0.493092 -3.046159
v 0.038010 -0.493092 -3.064727
v 0.005231 -0.493092 -3.071247
v -0.027549 -0.493092 -3.064727
v -0.055338 -0.493092 -3.046159
v -0.073906 -0.493092 -3.018369
v -0.080426 -0.493092 -2.985590
v -0.073906 -0.493092 -2.952811
v -0.055338 -0.493092 -2.925022
v -0.027549 -0.493093 -2.906454
v 0.005231 -0.493092 -2.899934
v 0.038010 -0.493093 -2.906454
v 0.065799 -0.493092 -2.925022
v 0.084367 -0.493092 -2.952811
v 0.090887 -0.493092 -2.985590
v 0.084367 -0.493092 -3.018369
v -0.080426 -0.012895 -2.985590
v -0.073906 -0.012895 -3.018369
v -0.073906 -0.012895 -2.952811
v -0.055338 -0.012895 -2.925022
v -0.027549 -0.012895 -2.906454
v 0.005231 -0.012895 -2.899934
v 0.038010 -0.012895 -2.906454
v 0.065799 -0.012895 -2.925022
v 0.084367 -0.012895 -2.952811
v 0.090887 -0.012895 -2.985590
v -0.055338 -0.012895 -3.046159
v -0.027549 -0.012895 -3.064727
v 0.005231 -0.012895 -3.071247
v 0.038010 -0.012895 -3.064727
v 0.065799 -0.012895 -3.046159
v 0.084367 -0.012895 -3.018369
vn -0.0000 -0.0000 1.0000
vn -0.0000 -0.0000 -1.0000
vn -0.7071 -0.7071 -0.0000
vn -0.3827 -0.9239 -0.0000
vn -0.0000 1.0000 -0.0000
vn -0.3827 0.9239 -0.0000
vn -0.0000 -1.0000 -0.0000
vn 0.3827 0.9239 -0.0000
vn 0.3827 -0.9239 -0.0000
vn 0.7071 0.7071 -0.0000
vn 0.7071 -0.7071 -0.0000
vn 0.9239 0.3827 -0.0000
vn 0.9239 -0.3827 -0.0000
vn -0.9239 0.3827 -0.0000
vn -1.0000 -0.0000 -0.0000
vn 1.0000 -0.0000 -0.0000
vn -0.9239 -0.3827 -0.0000
vn -0.7071 0.7071 -0.0000
vn -0.9239 -0.0000 0.3827
vn -0.9239 -0.0000 -0.3827
vn -0.7071 -0.0000 -0.7071
vn -0.7071 -0.0000 0.7071
vn -0.3827 -0.0000 -0.9239
vn -0.3827 -0.0000 0.9239
vn 0.3827 -0.0000 -0.9239
vn 0.3827 -0.0000 0.9239
vn 0.7071 -0.0000 -0.7071
vn 0.7071 -0.0000 0.7071
vn 0.9239 -0.0000 -0.3827
vn 0.9239 -0.0000 0.3827
vt 0.061672 0.885936
vt 0.088385 0.845957
vt 0.128364 0.872670
vt 0.848976 0.920001
vt 0.839595 0.967160
vt 0.792437 0.957779
vt 0.144735 0.986763
vt 0.154581 0.929487
vt 0.154581 0.986763
vt 0.217540 0.986763
vt 0.230039 0.929487
vt 0.230039 0.986763
vt 0.167079 0.929487
vt 0.167079 0.986763
vt 0.204292 0.986763
vt 0.217540 0.929487
vt 0.180328 0.929487
vt 0.180328 0.986763
vt 0.192310 0.986763
vt 0.204292 0.929487
vt 0.192310 0.929487
vt 0.939079 0.962733
vt 0.950109 0.906700
vt 0.950109 0.963588
vt 0.902027 0.963588
vt 0.913057 0.905845
vt 0.913057 0.962733
vt 0.071772 0.969925
vt 0.084395 0.912649
vt 0.084395 0.969925
vt 0.926068 0.962433
vt 0.939079 0.905845
vt 0.926068 0.905544
vt 0.097618 0.912649
vt 0.097618 0.969925
vt 0.061672 0.969925
vt 0.071772 0.912649
vt 0.109429 0.912649
vt 0.109429 0.969925
vt 0.239885 0.929487
vt 0.239885 0.986763
vt 0.607309 0.844055
vt 0.640581 0.866640
vt 0.618349 0.900149
vt 0.589303 0.912226
vt 0.628549 0.904502
vt 0.636356 0.944167
vt 0.391431 0.775399
vt 0.402370 0.934315
vt 0.391431 0.934568
vt 0.413309 0.775399
vt 0.422583 0.935287
vt 0.413309 0.934568
vt 0.382157 0.776118
vt 0.382157 0.935287
vt 0.382157 0.614895
vt 0.391431 0.775146
vt 0.382157 0.775146
vt 0.413309 0.454643
vt 0.422583 0.614895
vt 0.413309 0.614895
vt 0.391431 0.614895
vt 0.402370 0.775146
vt 0.402370 0.454643
vt 0.402370 0.614895
vt 0.402370 0.614895
vt 0.413309 0.775146
vt 0.391431 0.454643
vt 0.391431 0.614895
vt 0.422583 0.775146
vt 0.382157 0.614895
vt 0.948911 0.414922
vt 0.957403 0.575173
vt 0.948911 0.575173
vt 0.979133 0.414922
vt 0.989063 0.575173
vt 0.979133 0.575173
vt 0.402370 0.775146
vt 0.957403 0.414922
vt 0.968015 0.575173
vt 0.968015 0.414922
vt 0.128364 0.885936
vt 0.123287 0.898192
vt 0.113907 0.907572
vt 0.101651 0.912649
vt 0.088385 0.912649
vt 0.076129 0.907572
vt 0.066748 0.898192
vt 0.061672 0.872670
vt 0.066748 0.860414
vt 0.076129 0.851033
vt 0.101651 0.845957
vt 0.113907 0.851033
vt 0.123287 0.860414
vt 0.787360 0.945523
vt 0.787360 0.932257
vt 0.792437 0.920001
vt 0.801817 0.910621
vt 0.814073 0.905544
vt 0.827339 0.905544
vt 0.839595 0.910621
vt 0.854052 0.932257
vt 0.854052 0.945523
vt 0.848976 0.957779
vt 0.827339 0.972237
vt 0.814073 0.972237
vt 0.801817 0.967160
vt 0.144735 0.929487
vt 0.902027 0.906700
vt 0.061672 0.912649
vt 0.607309 0.900105
vt 0.597110 0.895797
vt 0.589303 0.887881
vt 0.585078 0.877564
vt 0.585078 0.866415
vt 0.589303 0.856132
vt 0.597110 0.848280
vt 0.618349 0.844100
vt 0.628549 0.848408
vt 0.636356 0.856323
vt 0.640581 0.877789
vt 0.636356 0.888072
vt 0.628549 0.895924
vt 0.628549 0.952019
vt 0.618349 0.956244
vt 0.607309 0.956199
vt 0.597109 0.951891
vt 0.589303 0.943976
vt 0.585078 0.933658
vt 0.585078 0.922509
vt 0.597110 0.904374
vt 0.607309 0.900149
vt 0.618349 0.900194
vt 0.636356 0.912417
vt 0.640580 0.922735
vt 0.640580 0.933884
vt 0.422583 0.776118
vt 0.422583 0.454643
vt 0.422583 0.614895
vt 0.382157 0.454643
vt 0.989063 0.414922
s 1
f 1/1/1 5/2/1 9/3/1
f 29/4/2 26/5/2 22/6/2
f 9/7/3 21/8/4 10/9/4
f 3/10/5 28/11/6 4/12/6
f 10/9/4 22/13/7 11/14/7
f 2/15/8 29/16/5 3/10/5
f 11/14/7 23/17/9 12/18/9
f 1/19/10 30/20/8 2/15/8
f 12/18/9 24/21/11 13/19/11
f 16/22/12 31/23/10 1/24/10
f 13/25/11 25/26/13 14/27/13
f 6/28/14 17/29/15 7/30/15
f 15/31/16 32/32/12 16/22/12
f 14/27/13 26/33/16 15/31/16
f 7/30/15 19/34/17 8/35/17
f 5/36/18 18/37/14 6/28/14
f 8/35/17 20/38/3 9/39/3
f 4/12/6 27/40/18 5/41/18
f 35/42/7 47/43/7 43/44/7
f 63/45/5 59/46/5 52/47/5
f 51/48/19 39/49/15 40/50/19
f 50/51/20 37/52/21 38/53/20
f 52/54/22 40/50/19 41/55/22
f 59/56/21 36/57/23 37/58/21
f 53/59/24 41/60/22 42/61/24
f 60/62/23 35/63/2 36/57/23
f 54/64/1 42/61/24 43/65/1
f 61/66/2 34/67/25 35/63/2
f 55/68/26 43/65/1 44/69/26
f 62/61/25 33/70/27 34/67/25
f 45/71/28 55/68/26 44/69/26
f 63/72/27 48/73/29 33/74/27
f 57/75/30 45/76/28 46/77/30
f 49/78/15 38/53/20 39/49/15
f 64/79/29 47/80/16 48/73/29
f 58/81/16 46/77/30 47/80/16
f 9/3/1 10/82/1 11/83/1
f 11/83/1 12/84/1 13/85/1
f 13/85/1 14/86/1 15/87/1
f 15/87/1 16/88/1 1/1/1
f 1/1/1 2/89/1 3/90/1
f 3/90/1 4/91/1 5/2/1
f 5/2/1 6/92/1 7/93/1
f 7/93/1 8/94/1 9/3/1
f 9/3/1 11/83/1 13/85/1
f 13/85/1 15/87/1 1/1/1
f 1/1/1 3/90/1 5/2/1
f 5/2/1 7/93/1 9/3/1
f 9/3/1 13/85/1 1/1/1
f 22/6/2 21/95/2 20/96/2
f 20/96/2 19/97/2 17/98/2
f 17/98/2 18/99/2 27/100/2
f 27/100/2 28/101/2 29/4/2
f 29/4/2 30/102/2 31/103/2
f 31/103/2 32/104/2 26/5/2
f 26/5/2 25/105/2 24/106/2
f 24/106/2 23/107/2 22/6/2
f 22/6/2 20/96/2 17/98/2
f 17/98/2 27/100/2 29/4/2
f 29/4/2 31/103/2 26/5/2
f 26/5/2 24/106/2 22/6/2
f 22/6/2 17/98/2 29/4/2
f 9/7/3 20/108/3 21/8/4
f 3/10/5 29/16/5 28/11/6
f 10/9/4 21/8/4 22/13/7
f 2/15/8 30/20/8 29/16/5
f 11/14/7 22/13/7 23/17/9
f 1/19/10 31/21/10 30/20/8
f 12/18/9 23/17/9 24/21/11
f 16/22/12 32/32/12 31/23/10
f 13/25/11 24/109/11 25/26/13
f 6/28/14 18/37/14 17/29/15
f 15/31/16 26/33/16 32/32/12
f 14/27/13 25/26/13 26/33/16
f 7/30/15 17/29/15 19/34/17
f 5/36/18 27/110/18 18/37/14
f 8/35/17 19/34/17 20/38/3
f 4/12/6 28/11/6 27/40/18
f 43/44/7 42/111/7 41/112/7
f 41/112/7 40/113/7 39/114/7
f 39/114/7 38/115/7 37/116/7
f 37/116/7 36/117/7 35/42/7
f 35/42/7 34/118/7 33/119/7
f 33/119/7 48/120/7 47/43/7
f 47/43/7 46/121/7 45/122/7
f 45/122/7 44/123/7 43/44/7
f 43/44/7 41/112/7 39/114/7
f 39/114/7 37/116/7 35/42/7
f 35/42/7 33/119/7 47/43/7
f 47/43/7 45/122/7 43/44/7
f 43/44/7 39/114/7 35/42/7
f 52/47/5 53/124/5 54/125/5
f 54/125/5 55/126/5 56/127/5
f 56/127/5 57/128/5 58/129/5
f 58/129/5 64/130/5 63/45/5
f 63/45/5 62/131/5 61/132/5
f 61/132/5 60/133/5 59/46/5
f 59/46/5 50/134/5 49/135/5
f 49/135/5 51/136/5 52/47/5
f 52/47/5 54/125/5 56/127/5
f 56/127/5 58/129/5 63/45/5
f 63/45/5 61/132/5 59/46/5
f 59/46/5 49/135/5 52/47/5
f 52/47/5 56/127/5 63/45/5
f 51/48/19 49/78/15 39/49/15
f 50/51/20 59/137/21 37/52/21
f 52/54/22 51/48/19 40/50/19
f 59/56/21 60/62/23 36/57/23
f 53/59/24 52/138/22 41/60/22
f 60/62/23 61/66/2 35/63/2
f 54/64/1 53/59/24 42/61/24
f 61/66/2 62/61/25 34/67/25
f 55/68/26 54/64/1 43/65/1
f 62/61/25 63/139/27 33/70/27
f 45/71/28 56/140/28 55/68/26
f 63/72/27 64/79/29 48/73/29
f 57/75/30 56/141/28 45/76/28
f 49/78/15 50/51/20 38/53/20
f 64/79/29 58/81/16 47/80/16
f 58/81/16 57/75/30 46/77/30
