# Blender 4.2.0
# www.blender.org
o chevron.001
v 5.841786 3.606034 125.635284
v 5.691788 3.381031 124.910271
v 6.353310 5.130962 125.635254
v 5.841787 -8.400005 125.635254
v 6.203308 -4.875099 124.910248
v 6.353310 -5.175041 125.635246
v 5.691788 -7.975048 124.910233
v 7.783310 -8.400177 133.160217
v 7.131784 -6.050201 132.435303
v 7.271786 -6.300198 133.160217
v 7.643308 -8.100151 132.435287
v 6.121788 -9.300045 127.160217
v 6.493309 -5.525032 126.410217
v 6.633308 -5.825050 127.160210
v 5.981788 -8.850002 126.410210
v 5.981788 -3.925079 126.410210
v 6.121788 -4.200111 127.160233
v 6.411787 -10.150112 128.660202
v 6.783310 -6.175083 127.935265
v 6.923309 -6.475121 128.660217
v 6.271788 -9.750069 127.935249
v 6.271788 -4.450165 127.935265
v 6.411787 -4.750172 128.660263
v 6.711788 -11.050117 130.235306
v 7.073309 -6.825130 129.460236
v 7.223310 -7.150146 130.235306
v 6.561788 -10.625099 129.460220
v 6.561788 -5.000187 129.460236
v 6.711788 -5.275204 130.235321
v 6.981787 -11.900085 131.685303
v 7.363308 -7.475174 130.960251
v 7.493309 -7.775124 131.685333
v 6.851786 -11.500122 130.960236
v 6.851787 -5.550201 130.960281
v 6.981788 -5.775158 131.685318
v 7.271786 -12.750130 133.160217
v 7.131784 -12.325119 132.435287
v 5.691788 -3.425110 124.910240
v 5.841787 -3.650085 125.635246
v 6.203308 4.831039 124.910263
v 5.841787 8.355919 125.635277
v 5.691789 7.930996 124.910271
v 7.271786 6.256180 133.160233
v 7.131784 6.006176 132.435333
v 7.783310 8.356136 133.160263
v 7.643308 8.056149 132.435318
v 7.271786 12.706081 133.160278
v 7.131784 12.281088 132.435349
v 6.981787 5.731152 131.685364
v 6.851786 5.506191 130.960281
v 7.493309 7.731091 131.685349
v 7.363308 7.431145 130.960297
v 6.981787 11.856020 131.685364
v 6.851787 11.456089 130.960312
v 6.711788 5.231136 130.235321
v 6.561787 4.956173 129.460251
v 7.223309 7.106129 130.235352
v 7.073309 6.781120 129.460251
v 6.711788 11.006058 130.235352
v 6.561787 10.581039 129.460251
v 6.411787 4.706139 128.660248
v 6.271789 4.406090 127.935280
v 6.923309 6.431080 128.660248
v 6.783310 6.131069 127.935287
v 6.411787 10.106022 128.660278
v 6.271788 9.706005 127.935303
v 6.121788 4.156063 127.160225
v 5.981787 3.881027 126.410233
v 6.633307 5.780994 127.160248
v 6.493309 5.480980 126.410248
v 6.121788 9.255962 127.160278
v 5.981788 8.805923 126.410263
vn 0.9436 -0.3165 -0.0970
vn 0.9537 -0.1513 -0.2599
vn 0.9452 -0.1560 -0.2870
vn 0.9662 0.2353 -0.1054
vn 0.9662 0.2354 -0.1054
vn 0.9666 0.2412 -0.0868
vn 0.9614 -0.1415 -0.2361
vn 0.9528 -0.1466 -0.2658
vn 0.9517 0.2996 -0.0678
vn 0.9510 0.3040 -0.0559
vn 0.9613 -0.1338 -0.2410
vn 0.9559 -0.1368 -0.2601
vn 0.9566 0.2837 -0.0673
vn 0.9627 -0.1263 -0.2393
vn 0.9580 -0.1290 -0.2561
vn 0.9606 0.2621 -0.0929
vn 0.9603 0.2692 -0.0730
vn 0.9674 -0.1200 -0.2231
vn 0.9630 -0.1224 -0.2402
vn 0.9643 0.2466 -0.0964
vn 0.9643 0.2562 -0.0669
vn 0.9657 -0.1136 -0.2335
vn 0.9603 -0.1163 -0.2536
vn 0.9415 0.3321 -0.0574
vn 0.9436 0.3165 -0.0970
vn 0.9537 0.1513 -0.2599
vn 0.9537 0.1513 -0.2600
vn 0.9452 0.1560 -0.2870
vn 0.9662 -0.2354 -0.1054
vn 0.9662 -0.2353 -0.1054
vn 0.9666 -0.2412 -0.0869
vn 0.9657 0.1136 -0.2335
vn 0.9657 0.1135 -0.2334
vn 0.9603 0.1163 -0.2536
vn 0.9643 -0.2466 -0.0964
vn 0.9643 -0.2467 -0.0963
vn 0.9643 -0.2562 -0.0669
vn 0.9674 0.1200 -0.2231
vn 0.9674 0.1200 -0.2230
vn 0.9630 0.1224 -0.2402
vn 0.9606 -0.2620 -0.0929
vn 0.9606 -0.2621 -0.0929
vn 0.9603 -0.2692 -0.0730
vn 0.9627 0.1263 -0.2393
vn 0.9627 0.1263 -0.2392
vn 0.9580 0.1290 -0.2561
vn 0.9566 -0.2837 -0.0673
vn 0.9613 0.1338 -0.2410
vn 0.9613 0.1338 -0.2409
vn 0.9559 0.1368 -0.2601
vn 0.9517 -0.2996 -0.0678
vn 0.9517 -0.2996 -0.0677
vn 0.9510 -0.3040 -0.0559
vn 0.9614 0.1415 -0.2361
vn 0.9528 0.1466 -0.2658
vn 0.9415 -0.3321 -0.0574
vt 0.710378 0.332050
vt 0.697190 0.375411
vt 0.799758 0.327143
vt 0.988487 0.332051
vt 0.781885 0.370503
vt 0.799464 0.327144
vt 0.963579 0.375412
vt 0.732265 0.015581
vt 0.594527 0.063747
vt 0.609180 0.020489
vt 0.714680 0.058841
vt 0.989950 0.270135
vt 0.768688 0.309936
vt 0.786273 0.265228
vt 0.963573 0.314844
vt 0.674913 0.314845
vt 0.685281 0.270134
vt 0.983668 0.207699
vt 0.750683 0.246051
vt 0.768268 0.202790
vt 0.960221 0.250961
vt 0.649582 0.250959
vt 0.667165 0.207697
vt 0.986063 0.140825
vt 0.738428 0.182171
vt 0.757478 0.135916
vt 0.961152 0.187081
vt 0.631464 0.187079
vt 0.647583 0.140824
vt 0.994682 0.083061
vt 0.735328 0.121324
vt 0.752908 0.078152
vt 0.971239 0.126233
vt 0.622501 0.126231
vt 0.626102 0.083060
vt 0.987225 0.020490
vt 0.962314 0.063749
vt 0.696897 0.375412
vt 0.710084 0.332052
vt 0.782179 0.370502
vt 0.988780 0.332050
vt 0.963874 0.375409
vt 0.609477 0.020487
vt 0.594824 0.063746
vt 0.732560 0.015578
vt 0.714977 0.058839
vt 0.987520 0.020485
vt 0.962611 0.063745
vt 0.626399 0.083058
vt 0.622798 0.126230
vt 0.753204 0.078149
vt 0.735624 0.121321
vt 0.994976 0.083058
vt 0.971535 0.126228
vt 0.647877 0.140823
vt 0.631761 0.187078
vt 0.757774 0.135915
vt 0.738725 0.182170
vt 0.986358 0.140822
vt 0.961447 0.187078
vt 0.667462 0.207697
vt 0.649876 0.250959
vt 0.768564 0.202788
vt 0.750980 0.246050
vt 0.983961 0.207695
vt 0.960515 0.250958
vt 0.685576 0.270134
vt 0.675207 0.314843
vt 0.786569 0.265224
vt 0.768984 0.309933
vt 0.990244 0.270132
vt 0.963866 0.314841
s 1
f 1/1/1 2/2/1 3/3/1
f 4/4/2 5/5/2 6/6/2
f 4/4/2 7/7/3 5/5/2
f 8/8/4 9/9/4 10/10/4
f 8/8/5 11/11/6 9/9/5
f 12/12/7 13/13/7 14/14/7
f 12/12/7 15/15/8 13/13/7
f 14/14/9 16/16/9 17/17/9
f 14/14/9 13/13/10 16/16/9
f 18/18/11 19/19/11 20/20/11
f 18/18/11 21/21/12 19/19/11
f 20/20/13 22/22/13 23/23/13
f 20/20/13 19/19/13 22/22/13
f 24/24/14 25/25/14 26/26/14
f 24/24/14 27/27/15 25/25/14
f 26/26/16 28/28/16 29/29/16
f 26/26/16 25/25/17 28/28/16
f 30/30/18 31/31/18 32/32/18
f 30/30/18 33/33/19 31/31/18
f 32/32/20 34/34/20 35/35/20
f 32/32/20 31/31/21 34/34/20
f 36/36/22 11/11/22 8/8/22
f 36/36/22 37/37/23 11/11/22
f 6/6/24 5/5/24 38/38/24
f 6/6/25 38/38/25 39/39/25
f 3/3/26 40/40/27 41/41/26
f 40/40/27 42/42/28 41/41/26
f 43/43/29 44/44/29 45/45/30
f 44/44/29 46/46/31 45/45/30
f 45/45/32 46/46/33 47/47/32
f 46/46/33 48/48/34 47/47/32
f 49/49/35 50/50/36 51/51/35
f 50/50/36 52/52/37 51/51/35
f 51/51/38 52/52/39 53/53/38
f 52/52/39 54/54/40 53/53/38
f 55/55/41 56/56/42 57/57/42
f 56/56/42 58/58/43 57/57/42
f 57/57/44 58/58/44 59/59/45
f 58/58/44 60/60/46 59/59/45
f 61/61/47 62/62/47 63/63/47
f 62/62/47 64/64/47 63/63/47
f 63/63/48 64/64/49 65/65/48
f 64/64/49 66/66/50 65/65/48
f 67/67/51 68/68/52 69/69/51
f 68/68/52 70/70/53 69/69/51
f 69/69/54 70/70/54 71/71/54
f 70/70/54 72/72/55 71/71/54
f 2/2/56 40/40/56 3/3/56
o chevron.002
v -5.841787 3.606026 125.635284
v -6.353310 5.130959 125.635246
v -5.691788 3.381031 124.910248
v -5.841786 -8.400009 125.635254
v -6.203308 -4.875099 124.910248
v -5.691788 -7.975056 124.910217
v -6.353311 -5.175037 125.635239
v -7.493309 -7.775120 131.685333
v -6.851786 -5.550205 130.960266
v -7.363308 -7.475174 130.960236
v -6.981787 -5.775162 131.685303
v -7.271787 -12.750134 133.160202
v -7.643308 -8.100155 132.435287
v -7.131784 -12.325119 132.435272
v -7.783309 -8.400181 133.160217
v -7.131784 -6.050201 132.435303
v -7.271786 -6.300198 133.160187
v -6.121788 -9.300041 127.160202
v -6.493309 -5.525028 126.410210
v -5.981787 -8.850006 126.410202
v -6.633308 -5.825050 127.160194
v -5.981787 -3.925091 126.410202
v -6.121788 -4.200108 127.160217
v -6.411787 -10.150108 128.660187
v -6.783310 -6.175091 127.935257
v -6.271789 -9.750069 127.935242
v -6.923309 -6.475121 128.660217
v -6.271788 -4.450165 127.935249
v -6.411787 -4.750175 128.660217
v -6.711788 -11.050117 130.235291
v -7.073308 -6.825134 129.460236
v -6.561787 -10.625099 129.460175
v -7.223309 -7.150143 130.235306
v -6.561787 -5.000187 129.460236
v -6.711789 -5.275204 130.235306
v -6.981787 -11.900089 131.685287
v -6.851786 -11.500126 130.960236
v -5.691788 -3.425113 124.910233
v -5.841787 -3.650085 125.635231
v -6.203308 4.831039 124.910263
v -6.633308 5.780994 127.160248
v -6.121788 9.255966 127.160271
v -6.493309 5.480976 126.410240
v -5.981788 8.805916 126.410255
v -6.121789 4.156063 127.160210
v -5.981788 3.881020 126.410217
v -6.923309 6.431072 128.660217
v -6.411787 10.106022 128.660278
v -6.783310 6.131062 127.935272
v -6.271788 9.706005 127.935295
v -6.411787 4.706142 128.660233
v -6.271789 4.406090 127.935272
v -7.223309 7.106121 130.235336
v -6.711788 11.006054 130.235336
v -7.073308 6.781120 129.460251
v -6.561787 10.581039 129.460236
v -6.711788 5.231136 130.235321
v -6.561787 4.956169 129.460236
v -7.493309 7.731087 131.685349
v -6.981787 11.856010 131.685333
v -7.363308 7.431141 130.960297
v -6.851786 11.456081 130.960312
v -6.981788 5.731148 131.685364
v -6.851787 5.506184 130.960266
v -7.783309 8.356133 133.160248
v -7.271786 12.706079 133.160278
v -7.643307 8.056145 132.435318
v -7.131784 12.281084 132.435349
v -7.271786 6.256172 133.160233
v -7.131784 6.006172 132.435318
v -5.841787 8.355915 125.635277
v -5.691788 7.930988 124.910271
vn -0.9436 -0.3165 -0.0970
vn -0.9537 -0.1513 -0.2599
vn -0.9452 -0.1560 -0.2869
vn -0.9643 0.2466 -0.0964
vn -0.9643 0.2562 -0.0669
vn -0.9657 -0.1136 -0.2335
vn -0.9657 -0.1136 -0.2336
vn -0.9603 -0.1163 -0.2536
vn -0.9662 0.2354 -0.1054
vn -0.9666 0.2412 -0.0868
vn -0.9662 0.2353 -0.1054
vn -0.9614 -0.1415 -0.2361
vn -0.9528 -0.1466 -0.2658
vn -0.9517 0.2996 -0.0677
vn -0.9510 0.3041 -0.0559
vn -0.9517 0.2996 -0.0678
vn -0.9613 -0.1338 -0.2410
vn -0.9613 -0.1338 -0.2409
vn -0.9559 -0.1368 -0.2601
vn -0.9566 0.2837 -0.0673
vn -0.9627 -0.1263 -0.2392
vn -0.9627 -0.1263 -0.2393
vn -0.9580 -0.1290 -0.2561
vn -0.9606 0.2621 -0.0929
vn -0.9603 0.2692 -0.0730
vn -0.9674 -0.1200 -0.2231
vn -0.9674 -0.1200 -0.2232
vn -0.9630 -0.1224 -0.2402
vn -0.9415 0.3321 -0.0574
vn -0.9436 0.3165 -0.0970
vn -0.9415 -0.3321 -0.0574
vn -0.9614 0.1415 -0.2361
vn -0.9528 0.1466 -0.2658
vn -0.9517 -0.2996 -0.0678
vn -0.9510 -0.3041 -0.0559
vn -0.9613 0.1338 -0.2410
vn -0.9559 0.1368 -0.2600
vn -0.9566 -0.2837 -0.0673
vn -0.9627 0.1263 -0.2393
vn -0.9580 0.1290 -0.2561
vn -0.9606 -0.2621 -0.0929
vn -0.9603 -0.2692 -0.0730
vn -0.9674 0.1200 -0.2231
vn -0.9630 0.1224 -0.2402
vn -0.9643 -0.2466 -0.0964
vn -0.9643 -0.2467 -0.0963
vn -0.9643 -0.2466 -0.0963
vn -0.9643 -0.2563 -0.0669
vn -0.9657 0.1136 -0.2335
vn -0.9603 0.1163 -0.2536
vn -0.9662 -0.2354 -0.1054
vn -0.9662 -0.2353 -0.1054
vn -0.9666 -0.2412 -0.0869
vn -0.9537 0.1513 -0.2599
vn -0.9452 0.1560 -0.2870
vt 0.710378 0.332050
vt 0.799758 0.327143
vt 0.697190 0.375411
vt 0.988487 0.332051
vt 0.781885 0.370503
vt 0.963579 0.375412
vt 0.799464 0.327144
vt 0.752908 0.078152
vt 0.622501 0.126231
vt 0.735328 0.121324
vt 0.626102 0.083060
vt 0.987225 0.020490
vt 0.714680 0.058841
vt 0.962314 0.063749
vt 0.732265 0.015581
vt 0.594527 0.063747
vt 0.609180 0.020489
vt 0.989950 0.270135
vt 0.768688 0.309936
vt 0.963573 0.314844
vt 0.786273 0.265228
vt 0.674913 0.314845
vt 0.685281 0.270134
vt 0.983668 0.207699
vt 0.750683 0.246051
vt 0.960221 0.250961
vt 0.768268 0.202790
vt 0.649582 0.250959
vt 0.667165 0.207697
vt 0.986063 0.140825
vt 0.738428 0.182171
vt 0.961152 0.187081
vt 0.757478 0.135916
vt 0.631464 0.187079
vt 0.647583 0.140824
vt 0.994682 0.083061
vt 0.971239 0.126233
vt 0.696897 0.375412
vt 0.710084 0.332052
vt 0.782179 0.370502
vt 0.786569 0.265224
vt 0.990244 0.270132
vt 0.768984 0.309933
vt 0.963866 0.314841
vt 0.685576 0.270134
vt 0.675207 0.314843
vt 0.768564 0.202788
vt 0.983961 0.207695
vt 0.750980 0.246050
vt 0.960515 0.250958
vt 0.667462 0.207697
vt 0.649876 0.250959
vt 0.757774 0.135915
vt 0.986358 0.140822
vt 0.738725 0.182170
vt 0.961447 0.187078
vt 0.647877 0.140823
vt 0.631761 0.187078
vt 0.753204 0.078149
vt 0.994976 0.083058
vt 0.735624 0.121321
vt 0.971535 0.126228
vt 0.626399 0.083058
vt 0.622798 0.126230
vt 0.732560 0.015578
vt 0.987520 0.020485
vt 0.714977 0.058839
vt 0.962611 0.063745
vt 0.609477 0.020487
vt 0.594824 0.063746
vt 0.988780 0.332050
vt 0.963874 0.375409
s 1
f 73/73/57 74/74/57 75/75/57
f 76/76/58 77/77/58 78/78/59
f 76/76/58 79/79/58 77/77/58
f 80/80/60 81/81/60 82/82/61
f 80/80/60 83/83/60 81/81/60
f 84/84/62 85/85/63 86/86/64
f 84/84/62 87/87/62 85/85/63
f 87/87/65 88/88/65 85/85/66
f 87/87/65 89/89/67 88/88/65
f 90/90/68 91/91/68 92/92/69
f 90/90/68 93/93/68 91/91/68
f 93/93/70 94/94/70 91/91/71
f 93/93/70 95/95/72 94/94/70
f 96/96/73 97/97/74 98/98/75
f 96/96/73 99/99/73 97/97/74
f 99/99/76 100/100/76 97/97/76
f 99/99/76 101/101/76 100/100/76
f 102/102/77 103/103/78 104/104/79
f 102/102/77 105/105/78 103/103/78
f 105/105/80 106/106/80 103/103/81
f 105/105/80 107/107/80 106/106/80
f 108/108/82 82/82/83 109/109/84
f 108/108/82 80/80/82 82/82/83
f 79/79/85 110/110/85 77/77/85
f 79/79/86 111/111/86 110/110/86
f 75/75/87 74/74/87 112/112/87
f 113/113/88 114/114/88 115/115/88
f 115/115/88 114/114/88 116/116/89
f 117/117/90 113/113/90 118/118/90
f 118/118/90 113/113/90 115/115/91
f 119/119/92 120/120/92 121/121/92
f 121/121/92 120/120/92 122/122/93
f 123/123/94 119/119/94 124/124/94
f 124/124/94 119/119/94 121/121/94
f 125/125/95 126/126/95 127/127/95
f 127/127/95 126/126/95 128/128/96
f 129/129/97 125/125/97 130/130/97
f 130/130/97 125/125/97 127/127/98
f 131/131/99 132/132/99 133/133/99
f 133/133/99 132/132/99 134/134/100
f 135/135/101 131/131/101 136/136/101
f 136/136/102 131/131/103 133/133/104
f 137/137/105 138/138/105 139/139/105
f 139/139/105 138/138/105 140/140/106
f 141/141/107 137/137/107 142/142/107
f 142/142/108 137/137/108 139/139/109
f 74/74/110 143/143/110 112/112/110
f 112/112/110 143/143/110 144/144/111
