# Blender 4.2.0
# www.blender.org
o chevron.007
v 8.250009 3.992485 134.482193
v 5.680012 1.927971 127.587700
v 7.000010 3.992485 134.482193
v 6.930008 1.927975 127.587700
v 1.054059 -4.036453 134.482254
v 5.975009 -5.126476 138.432297
v 1.054059 -5.126457 138.432281
v 7.000011 -4.036495 134.482178
v 8.250008 -4.036495 134.482178
v 1.054059 -0.021995 134.482269
v 1.054059 5.082458 138.432281
v 1.054059 3.992436 134.482269
v 1.054059 -0.022007 138.432266
v 6.930008 -0.022034 127.587685
v 5.680013 -0.022037 127.587685
v 8.250008 -0.022007 134.482178
v 5.975010 5.082451 138.432297
v 5.975009 -0.022007 138.432312
v 6.930008 -1.972027 127.587685
v 5.680012 -1.972031 127.587685
v -5.975010 -0.003981 138.432312
v -5.975009 -5.108443 138.432297
v -1.054060 -5.108447 138.432281
v -1.054059 -0.003981 138.432266
v -1.054058 5.100469 138.432281
v -5.975008 5.100484 138.432297
v -8.250008 -4.018466 134.482193
v -5.680014 -1.953959 127.587692
v -7.000011 -4.018466 134.482193
v -6.930008 -1.953955 127.587692
v -8.250008 -0.003977 134.482178
v -8.250007 4.010515 134.482178
v -1.054058 4.010465 134.482254
v -7.000010 4.010515 134.482178
v -1.054059 -0.003993 134.482269
v -1.054060 -4.018424 134.482269
v -6.930008 -0.003954 127.587692
v -5.680012 -0.003958 127.587692
v -6.930007 1.946043 127.587677
v -5.680012 1.946039 127.587677
vn -0.0000 0.9580 -0.2869
vn -0.0000 -0.9640 -0.2660
vn -1.0000 -0.0000 -0.0000
vn -0.0000 -0.0000 -1.0000
vn 0.8666 -0.0000 0.4991
vn -0.0000 0.9640 -0.2660
vn -0.0000 -0.0000 1.0000
vn 0.9822 -0.0000 -0.1880
vn -0.0000 -0.9580 -0.2869
vn -0.8666 -0.0000 0.4991
vn 1.0000 -0.0000 -0.0000
vn -0.9822 -0.0000 -0.1880
vt 0.110969 0.168601
vt 0.011105 0.448234
vt 0.062397 0.168601
vt 0.059677 0.448234
vt 0.010499 0.010545
vt 0.176723 0.148954
vt 0.010499 0.148953
vt 0.211346 0.010543
vt 0.253570 0.010543
vt 0.975618 0.737490
vt 0.775110 0.582330
vt 0.817927 0.737490
vt 0.975619 0.582330
vt 0.782555 0.559042
vt 0.983064 0.430511
vt 0.983064 0.559042
vt 0.782555 0.430511
vt 0.396771 0.430507
vt 0.703170 0.430509
vt 0.786359 0.776872
vt 0.396771 0.776873
vt 0.007184 0.776872
vt 0.090374 0.430507
vt 0.010499 0.148954
vt 0.176723 0.148955
vt 0.007184 0.994132
vt 0.396771 0.994131
vt 0.786359 0.994133
vt 0.247940 0.059554
vt 0.396769 0.059555
vt 0.545600 0.059555
vt 0.983052 0.559042
vt 0.983052 0.430511
vt 0.782544 0.559042
vt 0.782544 0.430511
vt 0.819781 0.737491
vt 0.776965 0.582330
vt 0.977474 0.737490
vt 0.975590 0.582330
s 1
f 1/1/1 2/2/1 3/3/1
f 1/1/1 4/4/1 2/2/1
f 5/5/2 6/6/2 7/7/2
f 5/5/2 8/8/2 6/6/2
f 8/8/2 9/9/2 6/6/2
f 10/10/3 11/11/3 12/12/3
f 10/10/3 13/13/3 11/11/3
f 14/14/4 2/15/4 4/16/4
f 14/14/4 15/17/4 2/15/4
f 16/18/5 1/19/5 17/20/5
f 18/21/5 16/18/5 17/20/5
f 6/22/5 16/18/5 18/21/5
f 6/22/5 9/23/5 16/18/5
f 11/24/6 17/25/6 12/5/6
f 17/25/6 3/8/6 12/5/6
f 17/25/6 1/9/6 3/8/6
f 7/26/7 6/22/7 18/21/7
f 7/26/7 18/21/7 13/27/7
f 13/27/7 18/21/7 11/28/7
f 18/21/7 17/20/7 11/28/7
f 9/23/8 19/29/8 16/18/8
f 19/29/8 14/30/8 16/18/8
f 16/18/8 14/30/8 4/31/8
f 16/18/8 4/31/8 1/19/8
f 19/32/4 20/33/4 14/34/4
f 20/33/4 15/35/4 14/34/4
f 5/36/3 7/37/3 10/38/3
f 7/37/3 13/39/3 10/38/3
f 8/3/9 20/2/9 9/1/9
f 20/2/9 19/4/9 9/1/9
f 21/21/7 22/20/7 23/28/7
f 24/27/7 21/21/7 23/28/7
f 25/26/7 21/21/7 24/27/7
f 25/26/7 26/22/7 21/21/7
f 27/1/9 28/2/9 29/3/9
f 27/1/9 30/4/9 28/2/9
f 31/18/10 27/19/10 22/20/10
f 21/21/10 31/18/10 22/20/10
f 26/22/10 31/18/10 21/21/10
f 26/22/10 32/23/10 31/18/10
f 33/5/6 26/6/6 25/7/6
f 33/5/6 34/8/6 26/6/6
f 34/8/6 32/9/6 26/6/6
f 35/10/11 23/11/11 36/12/11
f 35/10/11 24/13/11 23/11/11
f 37/14/4 28/15/4 30/16/4
f 37/14/4 38/17/4 28/15/4
f 23/24/2 22/25/2 36/5/2
f 22/25/2 29/8/2 36/5/2
f 22/25/2 27/9/2 29/8/2
f 32/23/12 39/29/12 31/18/12
f 39/29/12 37/30/12 31/18/12
f 31/18/12 37/30/12 30/31/12
f 31/18/12 30/31/12 27/19/12
f 34/3/1 40/2/1 32/1/1
f 40/2/1 39/4/1 32/1/1
f 33/36/11 25/37/11 35/38/11
f 25/37/11 24/39/11 35/38/11
f 39/32/4 40/33/4 37/34/4
f 40/33/4 38/35/4 37/34/4
