# Blender 4.2.0
# www.blender.org
o Cylinder.007
v 0.269818 0.062372 -0.000001
v 0.249279 0.062372 -0.103256
v 0.249279 -0.062372 -0.103256
v 0.269818 -0.062372 -0.000001
v 0.190790 0.062372 -0.190791
v 0.190790 -0.062372 -0.190791
v 0.103255 0.062372 -0.249281
v 0.103255 -0.062372 -0.249281
v -0.000000 0.062372 -0.269819
v -0.000000 -0.062372 -0.269819
v -0.103255 0.062372 -0.249281
v -0.103255 -0.062372 -0.249281
v -0.190790 0.062372 -0.190791
v -0.190790 -0.062372 -0.190791
v -0.249279 0.062372 -0.103256
v -0.249279 -0.062372 -0.103256
v -0.269818 0.062372 -0.000001
v -0.269818 -0.062372 -0.000001
v -0.249279 0.062372 0.103254
v -0.249279 -0.062372 0.103254
v -0.190790 0.062372 0.190789
v -0.190790 -0.062372 0.190789
v -0.103255 0.062372 0.249278
v -0.103255 -0.062372 0.249278
v -0.000000 0.062372 0.269817
v -0.000000 -0.062372 0.269817
v 0.103255 0.062372 0.249278
v 0.103255 -0.062372 0.249278
v 0.190790 0.062372 0.190789
v 0.190790 -0.062372 0.190789
v 0.249279 0.062372 0.103254
v 0.249279 -0.062372 0.103254
v 0.120009 0.100443 -0.000001
v 0.131452 0.098290 -0.000001
v 0.131452 -0.098290 -0.000001
v 0.120009 -0.100443 -0.000001
v 0.121446 0.098290 -0.050306
v 0.110874 0.100443 -0.045927
v 0.110874 -0.100443 -0.045927
v 0.121446 -0.098290 -0.050306
v 0.092951 0.098290 -0.092952
v 0.084859 0.100443 -0.084860
v 0.084859 -0.100443 -0.084860
v 0.092951 -0.098290 -0.092952
v 0.050305 0.098290 -0.121447
v 0.045926 0.100443 -0.110875
v 0.045926 -0.100443 -0.110875
v 0.050305 -0.098290 -0.121447
v 0.000000 0.098290 -0.131453
v 0.000000 0.100443 -0.120010
v 0.000000 -0.100443 -0.120010
v 0.000000 -0.098290 -0.131453
v -0.050305 0.098290 -0.121447
v -0.045925 0.100443 -0.110875
v -0.045925 -0.100443 -0.110875
v -0.050304 -0.098290 -0.121447
v -0.092951 0.098290 -0.092952
v -0.084859 0.100443 -0.084860
v -0.084859 -0.100443 -0.084860
v -0.092951 -0.098290 -0.092952
v -0.121446 0.098290 -0.050306
v -0.110874 0.100443 -0.045927
v -0.110874 -0.100443 -0.045927
v -0.121446 -0.098290 -0.050306
v -0.131452 0.098290 -0.000001
v -0.120009 0.100443 -0.000001
v -0.120009 -0.100443 -0.000001
v -0.131452 -0.098290 -0.000001
v -0.121446 0.098290 0.050303
v -0.110874 0.100443 0.045924
v -0.110874 -0.100443 0.045924
v -0.121446 -0.098290 0.050303
v -0.092951 0.098290 0.092950
v -0.084859 0.100443 0.084858
v -0.084859 -0.100443 0.084858
v -0.092951 -0.098290 0.092950
v -0.050304 0.098290 0.121445
v -0.045925 0.100443 0.110873
v -0.045925 -0.100443 0.110873
v -0.050304 -0.098290 0.121445
v 0.000000 0.098290 0.131451
v 0.000000 0.100443 0.120008
v 0.000000 -0.100443 0.120008
v 0.000000 -0.098290 0.131451
v 0.050305 0.098290 0.121445
v 0.045926 0.100443 0.110873
v 0.045926 -0.100443 0.110873
v 0.050305 -0.098290 0.121445
v 0.092951 0.098290 0.092950
v 0.084859 0.100443 0.084858
v 0.084859 -0.100443 0.084858
v 0.092951 -0.098290 0.092950
v 0.121446 0.098290 0.050303
v 0.110874 0.100443 0.045924
v 0.110874 -0.100443 0.045924
v 0.121446 -0.098290 0.050303
v 0.219542 0.043303 -0.000001
v 0.227389 0.043143 -0.000001
v 0.210080 0.043143 -0.087019
v 0.202830 0.043303 -0.084016
v 0.202830 -0.043303 -0.084016
v 0.210080 -0.043143 -0.087019
v 0.227389 -0.043143 -0.000001
v 0.219542 -0.043303 -0.000001
v 0.160788 0.043143 -0.160789
v 0.155239 0.043303 -0.155241
v 0.155239 -0.043303 -0.155241
v 0.160788 -0.043143 -0.160789
v 0.087018 0.043143 -0.210081
v 0.084015 0.043303 -0.202831
v 0.084015 -0.043303 -0.202831
v 0.087018 -0.043143 -0.210081
v -0.000000 0.043143 -0.227390
v -0.000000 0.043303 -0.219543
v -0.000000 -0.043303 -0.219543
v -0.000000 -0.043143 -0.227390
v -0.087018 0.043143 -0.210081
v -0.084015 0.043303 -0.202831
v -0.084015 -0.043303 -0.202831
v -0.087018 -0.043143 -0.210081
v -0.160788 0.043143 -0.160789
v -0.155239 0.043303 -0.155241
v -0.155239 -0.043303 -0.155241
v -0.160788 -0.043143 -0.160789
v -0.210080 0.043143 -0.087019
v -0.202830 0.043303 -0.084016
v -0.202830 -0.043303 -0.084016
v -0.210080 -0.043143 -0.087019
v -0.227389 0.043143 -0.000001
v -0.219542 0.043303 -0.000001
v -0.219542 -0.043303 -0.000001
v -0.227389 -0.043143 -0.000001
v -0.210080 0.043143 0.087017
v -0.202830 0.043303 0.084014
v -0.202830 -0.043303 0.084014
v -0.210080 -0.043143 0.087017
v -0.160788 0.043143 0.160787
v -0.155239 0.043303 0.155238
v -0.155239 -0.043303 0.155238
v -0.160788 -0.043143 0.160787
v -0.087018 0.043143 0.210079
v -0.084015 0.043303 0.202829
v -0.084015 -0.043303 0.202829
v -0.087018 -0.043143 0.210079
v -0.000000 0.043143 0.227388
v -0.000000 0.043303 0.219540
v -0.000000 -0.043303 0.219540
v -0.000000 -0.043143 0.227388
v 0.087018 0.043143 0.210079
v 0.084015 0.043303 0.202829
v 0.084015 -0.043303 0.202829
v 0.087018 -0.043143 0.210079
v 0.160788 0.043143 0.160787
v 0.155239 0.043303 0.155238
v 0.155239 -0.043303 0.155238
v 0.160788 -0.043143 0.160787
v 0.210080 0.043143 0.087017
v 0.202830 0.043303 0.084014
v 0.202830 -0.043303 0.084014
v 0.210080 -0.043143 0.087017
vn 0.5639 0.8258 -0.0000
vn 0.5676 0.7960 -0.2102
vn 0.5676 -0.7960 -0.2102
vn 0.5639 -0.8258 -0.0000
vn 0.5264 0.6738 -0.5185
vn 0.5264 -0.6738 -0.5185
vn 0.3156 0.4074 -0.8570
vn 0.3156 -0.4074 -0.8570
vn -0.0000 0.2465 -0.9692
vn -0.0000 -0.2465 -0.9692
vn -0.3156 0.4074 -0.8570
vn -0.3156 -0.4074 -0.8570
vn -0.5264 0.6738 -0.5185
vn -0.5264 -0.6738 -0.5185
vn -0.5676 0.7960 -0.2102
vn -0.5676 -0.7960 -0.2102
vn -0.5639 0.8258 -0.0000
vn -0.5639 -0.8258 -0.0000
vn -0.5676 0.7960 0.2102
vn -0.5676 -0.7960 0.2102
vn -0.5264 0.6738 0.5185
vn -0.5264 -0.6738 0.5185
vn -0.3156 0.4074 0.8570
vn -0.3156 -0.4074 0.8570
vn -0.0000 0.2465 0.9692
vn -0.0000 -0.2465 0.9692
vn 0.3156 0.4074 0.8570
vn 0.3156 -0.4074 0.8570
vn 0.5264 0.6738 0.5185
vn 0.5264 -0.6738 0.5185
vn 0.5676 0.7960 0.2102
vn 0.5676 -0.7960 0.2102
vn 0.0964 0.9953 -0.0000
vn 0.3696 0.9292 -0.0000
vn 0.3696 -0.9292 -0.0000
vn 0.0964 -0.9953 -0.0000
vn 0.3487 0.9284 -0.1284
vn 0.0932 0.9952 -0.0285
vn 0.0932 -0.9952 -0.0285
vn 0.3487 -0.9284 -0.1284
vn 0.2818 0.9252 -0.2542
vn 0.0785 0.9949 -0.0626
vn 0.0785 -0.9949 -0.0626
vn 0.2818 -0.9252 -0.2542
vn 0.1684 0.9155 -0.3653
vn 0.0501 0.9939 -0.0984
vn 0.0501 -0.9939 -0.0984
vn 0.1684 -0.9155 -0.3653
vn -0.0000 0.9002 -0.4355
vn -0.0000 0.9918 -0.1276
vn -0.0000 -0.9918 -0.1276
vn -0.0000 -0.9002 -0.4355
vn -0.1684 0.9155 -0.3653
vn -0.0501 0.9939 -0.0984
vn -0.0501 -0.9939 -0.0984
vn -0.1684 -0.9155 -0.3653
vn -0.2818 0.9252 -0.2542
vn -0.0785 0.9949 -0.0626
vn -0.0785 -0.9949 -0.0626
vn -0.2818 -0.9252 -0.2542
vn -0.3487 0.9284 -0.1284
vn -0.0932 0.9952 -0.0285
vn -0.0932 -0.9952 -0.0285
vn -0.3487 -0.9284 -0.1284
vn -0.3696 0.9292 -0.0000
vn -0.0964 0.9953 -0.0000
vn -0.0964 -0.9953 -0.0000
vn -0.3696 -0.9292 -0.0000
vn -0.3487 0.9284 0.1284
vn -0.0932 0.9952 0.0285
vn -0.0932 -0.9952 0.0285
vn -0.3487 -0.9284 0.1284
vn -0.2818 0.9252 0.2542
vn -0.0785 0.9949 0.0626
vn -0.0785 -0.9949 0.0626
vn -0.2818 -0.9252 0.2542
vn -0.1684 0.9155 0.3653
vn -0.0501 0.9939 0.0984
vn -0.0501 -0.9939 0.0984
vn -0.1684 -0.9155 0.3653
vn -0.0000 0.9002 0.4355
vn -0.0000 0.9918 0.1276
vn -0.0000 -0.9918 0.1276
vn -0.0000 -0.9002 0.4355
vn 0.1684 0.9155 0.3653
vn 0.0501 0.9939 0.0984
vn 0.0501 -0.9939 0.0984
vn 0.1684 -0.9155 0.3653
vn 0.2818 0.9252 0.2542
vn 0.0785 0.9949 0.0626
vn 0.0785 -0.9949 0.0626
vn 0.2818 -0.9252 0.2542
vn 0.3487 0.9284 0.1284
vn 0.0932 0.9952 0.0285
vn 0.0932 -0.9952 0.0285
vn 0.3487 -0.9284 0.1284
vn 0.2758 0.9612 -0.0000
vn -0.2093 0.9778 -0.0000
vn -0.2033 0.9772 0.0612
vn 0.2468 0.9603 -0.1298
vn 0.2468 -0.9603 -0.1298
vn -0.2033 -0.9772 0.0612
vn -0.2093 -0.9778 -0.0000
vn 0.2758 -0.9612 -0.0000
vn -0.1741 0.9752 0.1370
vn 0.1733 0.9600 -0.2197
vn 0.1733 -0.9600 -0.2197
vn -0.1741 -0.9752 0.1370
vn -0.1133 0.9688 0.2205
vn 0.0733 0.9665 -0.2460
vn 0.0733 -0.9665 -0.2460
vn -0.1133 -0.9688 0.2205
vn -0.0000 0.9573 0.2891
vn -0.0000 0.9788 -0.2049
vn -0.0000 -0.9788 -0.2049
vn -0.0000 -0.9573 0.2891
vn 0.1133 0.9688 0.2205
vn -0.0733 0.9665 -0.2460
vn -0.0733 -0.9665 -0.2460
vn 0.1133 -0.9688 0.2205
vn 0.1741 0.9752 0.1370
vn -0.1733 0.9600 -0.2197
vn -0.1733 -0.9600 -0.2197
vn 0.1741 -0.9752 0.1370
vn 0.2033 0.9772 0.0612
vn -0.2468 0.9603 -0.1298
vn -0.2468 -0.9603 -0.1298
vn 0.2033 -0.9772 0.0612
vn 0.2093 0.9778 -0.0000
vn -0.2758 0.9612 -0.0000
vn -0.2758 -0.9612 -0.0000
vn 0.2093 -0.9778 -0.0000
vn 0.2033 0.9772 -0.0612
vn -0.2468 0.9603 0.1298
vn -0.2468 -0.9603 0.1298
vn 0.2033 -0.9772 -0.0612
vn 0.1741 0.9752 -0.1370
vn -0.1733 0.9600 0.2197
vn -0.1733 -0.9600 0.2197
vn 0.1741 -0.9752 -0.1370
vn 0.1133 0.9688 -0.2205
vn -0.0733 0.9665 0.2460
vn -0.0733 -0.9665 0.2460
vn 0.1133 -0.9688 -0.2205
vn -0.0000 0.9573 -0.2891
vn -0.0000 0.9788 0.2049
vn -0.0000 -0.9788 0.2049
vn -0.0000 -0.9573 -0.2891
vn -0.1133 0.9688 -0.2205
vn 0.0733 0.9665 0.2460
vn 0.0733 -0.9665 0.2460
vn -0.1133 -0.9688 -0.2205
vn -0.1741 0.9752 -0.1370
vn 0.1733 0.9600 0.2197
vn 0.1733 -0.9600 0.2197
vn -0.1741 -0.9752 -0.1370
vn -0.2033 0.9772 -0.0612
vn 0.2468 0.9603 0.1298
vn 0.2468 -0.9603 0.1298
vn -0.2033 -0.9772 -0.0612
vt 0.750000 0.436414
vt 0.178662 0.422224
vt 0.250000 0.436414
vt 0.678662 0.422224
vt 0.118185 0.381815
vt 0.618185 0.381815
vt 0.077776 0.321338
vt 0.577776 0.321338
vt 0.063586 0.250000
vt 0.577776 0.178662
vt 0.077776 0.178662
vt 0.118185 0.118185
vt 0.618185 0.118185
vt 0.178662 0.077776
vt 0.678663 0.077776
vt 0.250000 0.063586
vt 0.750000 0.063586
vt 0.321338 0.077776
vt 0.821337 0.077776
vt 0.381815 0.118185
vt 0.881815 0.118185
vt 0.422224 0.178662
vt 0.922224 0.178662
vt 0.436414 0.250000
vt 0.936414 0.250000
vt 0.422224 0.321338
vt 0.922224 0.321337
vt 0.381815 0.381815
vt 0.881815 0.381815
vt 0.321338 0.422224
vt 0.821338 0.422224
vt 0.250000 0.402253
vt 0.209411 0.347992
vt 0.250000 0.356065
vt 0.709411 0.347992
vt 0.750000 0.402253
vt 0.750000 0.356065
vt 0.689880 0.395142
vt 0.750000 0.407100
vt 0.361087 0.361087
vt 0.310120 0.395142
vt 0.310120 0.395142
vt 0.250000 0.407100
vt 0.189880 0.395142
vt 0.395142 0.310120
vt 0.907100 0.250000
vt 0.895142 0.310120
vt 0.407100 0.250000
vt 0.895142 0.189880
vt 0.395142 0.189880
vt 0.895142 0.189880
vt 0.861087 0.138913
vt 0.395142 0.189880
vt 0.361087 0.138913
vt 0.810120 0.104858
vt 0.361087 0.138913
vt 0.310120 0.104858
vt 0.750000 0.092900
vt 0.310120 0.104858
vt 0.250000 0.092900
vt 0.689880 0.104858
vt 0.750000 0.092900
vt 0.189880 0.104858
vt 0.250000 0.092900
vt 0.638913 0.138913
vt 0.689880 0.104858
vt 0.138913 0.138913
vt 0.189880 0.104858
vt 0.604858 0.189880
vt 0.638913 0.138913
vt 0.104858 0.189880
vt 0.592900 0.250000
vt 0.092900 0.250000
vt 0.604858 0.310120
vt 0.104858 0.310120
vt 0.604858 0.310120
vt 0.638913 0.361087
vt 0.138913 0.361087
vt 0.638913 0.361087
vt 0.689880 0.395142
vt 0.138913 0.361087
vt 0.189880 0.395142
vt 0.861087 0.361087
vt 0.810120 0.395142
vt 0.895142 0.310120
vt 0.861087 0.361087
vt 0.787406 0.159694
vt 0.659695 0.212594
vt 0.712594 0.340305
vt 0.180883 0.180883
vt 0.319117 0.180883
vt 0.319117 0.319117
vt 0.325000 0.324999
vt 0.308265 0.390664
vt 0.290589 0.347992
vt 0.857659 0.357659
vt 0.847992 0.290589
vt 0.825000 0.325000
vt 0.347992 0.290589
vt 0.357659 0.357659
vt 0.890664 0.308265
vt 0.856065 0.250000
vt 0.847992 0.290589
vt 0.356065 0.250000
vt 0.390664 0.308265
vt 0.347992 0.290589
vt 0.856066 0.250000
vt 0.890664 0.191735
vt 0.847992 0.209411
vt 0.390664 0.191735
vt 0.347992 0.209411
vt 0.857659 0.142341
vt 0.825000 0.175000
vt 0.357659 0.142341
vt 0.325000 0.175000
vt 0.808265 0.109336
vt 0.790590 0.152008
vt 0.308265 0.109336
vt 0.290589 0.152008
vt 0.790589 0.152008
vt 0.750000 0.097747
vt 0.750000 0.143935
vt 0.250000 0.097747
vt 0.290589 0.152008
vt 0.250000 0.143935
vt 0.750000 0.097747
vt 0.709411 0.152008
vt 0.209411 0.152008
vt 0.250000 0.097747
vt 0.691735 0.109336
vt 0.675001 0.175000
vt 0.709411 0.152008
vt 0.175000 0.175000
vt 0.191735 0.109336
vt 0.209411 0.152008
vt 0.642341 0.142341
vt 0.652008 0.209411
vt 0.152008 0.209411
vt 0.142341 0.142341
vt 0.175000 0.175000
vt 0.609336 0.191735
vt 0.643935 0.250000
vt 0.143935 0.250000
vt 0.109336 0.191735
vt 0.609336 0.308265
vt 0.652008 0.290589
vt 0.109336 0.308265
vt 0.152008 0.290589
vt 0.642341 0.357659
vt 0.675001 0.325000
vt 0.142341 0.357659
vt 0.152008 0.290589
vt 0.175000 0.325000
vt 0.675000 0.325000
vt 0.691735 0.390664
vt 0.709411 0.347992
vt 0.191735 0.390664
vt 0.175000 0.325000
vt 0.209411 0.347992
vt 0.750000 0.407100
vt 0.250000 0.402253
vt 0.250000 0.356065
vt 0.808265 0.390664
vt 0.790590 0.347992
vt 0.750000 0.402253
vt 0.857659 0.357659
vt 0.890664 0.308265
vt 0.390664 0.308265
vt 0.902253 0.250000
vt 0.402253 0.250000
vt 0.402253 0.250000
vt 0.890664 0.191735
vt 0.357659 0.142341
vt 0.308265 0.109336
vt 0.642341 0.142341
vt 0.142341 0.142341
vt 0.597747 0.250000
vt 0.097747 0.250000
vt 0.597747 0.250000
vt 0.097747 0.250000
vt 0.609336 0.308265
vt 0.109336 0.308265
vt 0.642341 0.357659
vt 0.142341 0.357659
vt 0.691735 0.390664
vt 0.750000 0.356065
vt 0.787406 0.340306
vt 0.750000 0.347746
vt 0.287406 0.340305
vt 0.819117 0.319117
vt 0.840306 0.287406
vt 0.340305 0.287406
vt 0.847746 0.250000
vt 0.347746 0.250000
vt 0.340305 0.212594
vt 0.840305 0.212594
vt 0.819117 0.180883
vt 0.287406 0.159694
vt 0.250000 0.152254
vt 0.712594 0.159694
vt 0.750000 0.152254
vt 0.212594 0.159695
vt 0.680883 0.180883
vt 0.159694 0.212594
vt 0.652254 0.250000
vt 0.152254 0.250000
vt 0.159694 0.287406
vt 0.659694 0.287406
vt 0.180883 0.319117
vt 0.680883 0.319117
vt 0.212594 0.340305
vt 0.250000 0.347746
vt 0.790590 0.347992
vt 0.563586 0.250000
s 1
f 1/1/1 32/2/32 4/3/4
f 31/4/31 30/5/30 32/2/32
f 29/6/29 28/7/28 30/5/30
f 27/8/27 26/9/26 28/7/28
f 26/9/26 23/10/23 24/11/24
f 23/10/23 22/12/22 24/11/24
f 21/13/21 20/14/20 22/12/22
f 19/15/19 18/16/18 20/14/20
f 17/17/17 16/18/16 18/16/18
f 15/19/15 14/20/14 16/18/16
f 13/21/13 12/22/12 14/20/14
f 11/23/11 10/24/10 12/22/12
f 9/25/9 8/26/8 10/24/10
f 7/27/7 6/28/6 8/26/8
f 5/29/5 3/30/3 6/28/6
f 2/31/2 4/3/4 3/30/3
f 104/32/104 96/33/96 35/34/35
f 93/35/93 97/36/97 34/37/34
f 157/38/157 1/1/1 98/39/98
f 108/40/108 3/30/3 102/41/102
f 102/42/102 4/3/4 103/43/103
f 4/3/4 160/44/160 103/43/103
f 112/45/112 6/28/6 108/40/108
f 7/27/7 113/46/113 109/47/109
f 116/48/116 8/26/8 112/45/112
f 113/46/113 11/23/11 117/49/117
f 12/22/12 116/48/116 120/50/120
f 117/51/117 13/21/13 121/52/121
f 14/20/14 120/53/120 124/54/124
f 121/52/121 15/19/15 125/55/125
f 16/18/16 124/56/124 128/57/128
f 125/55/125 17/17/17 129/58/129
f 18/16/18 128/59/128 132/60/132
f 17/17/17 133/61/133 129/62/129
f 136/63/136 18/16/18 132/64/132
f 19/15/19 137/65/137 133/66/133
f 140/67/140 20/14/20 136/68/136
f 21/13/21 141/69/141 137/70/137
f 144/71/144 22/12/22 140/67/140
f 23/10/23 145/72/145 141/69/141
f 148/73/148 24/11/24 144/71/144
f 145/72/145 27/8/27 149/74/149
f 28/7/28 148/73/148 152/75/152
f 149/76/149 29/6/29 153/77/153
f 30/5/30 152/75/152 156/78/156
f 153/79/153 31/4/31 157/80/157
f 32/2/32 156/81/156 160/82/160
f 2/31/2 105/83/105 99/84/99
f 5/29/5 109/85/109 105/86/105
f 62/87/62 78/88/78 94/89/94
f 75/90/75 59/91/59 43/92/43
f 44/93/44 101/94/101 40/95/40
f 106/96/106 45/97/45 41/98/41
f 48/99/48 107/100/107 44/93/44
f 110/101/110 49/102/49 45/103/45
f 52/104/52 111/105/111 48/106/48
f 49/107/49 118/108/118 53/109/53
f 119/110/119 52/104/52 56/111/56
f 53/109/53 122/112/122 57/113/57
f 123/114/123 56/111/56 60/115/60
f 57/113/57 126/116/126 61/117/61
f 127/118/127 60/115/60 64/119/64
f 61/120/61 130/121/130 65/122/65
f 131/123/131 64/124/64 68/125/68
f 130/126/130 69/127/69 65/122/65
f 72/128/72 131/129/131 68/125/68
f 134/130/134 73/131/73 69/132/69
f 76/133/76 135/134/135 72/135/72
f 138/136/138 77/137/77 73/131/73
f 80/138/80 139/139/139 76/140/76
f 142/141/142 81/142/81 77/137/77
f 84/143/84 143/144/143 80/138/80
f 81/142/81 150/145/150 85/146/85
f 151/147/151 84/143/84 88/148/88
f 85/146/85 154/149/154 89/150/89
f 155/151/155 88/152/88 92/153/92
f 89/154/89 158/155/158 93/156/93
f 159/157/159 92/158/92 96/159/96
f 1/1/1 99/84/99 98/160/98
f 40/95/40 104/161/104 35/162/35
f 100/163/100 41/98/41 37/164/37
f 98/160/98 100/163/100 97/165/97
f 103/43/103 101/94/101 102/42/102
f 99/84/99 106/166/106 100/163/100
f 102/41/102 107/100/107 108/40/108
f 105/86/105 110/167/110 106/96/106
f 108/40/108 111/168/111 112/45/112
f 109/47/109 114/169/114 110/101/110
f 112/45/112 115/170/115 116/48/116
f 117/49/117 114/169/114 113/46/113
f 120/50/120 115/171/115 119/110/119
f 121/52/121 118/172/118 117/51/117
f 124/54/124 119/110/119 123/114/123
f 125/55/125 122/112/122 121/52/121
f 128/57/128 123/173/123 127/118/127
f 129/58/129 126/116/126 125/55/125
f 132/60/132 127/174/127 131/123/131
f 129/62/129 134/130/134 130/126/130
f 132/64/132 135/134/135 136/63/136
f 133/66/133 138/175/138 134/130/134
f 136/68/136 139/176/139 140/67/140
f 137/70/137 142/141/142 138/136/138
f 140/67/140 143/144/143 144/71/144
f 141/69/141 146/177/146 142/141/142
f 144/71/144 147/178/147 148/73/148
f 149/74/149 146/179/146 145/72/145
f 152/75/152 147/180/147 151/147/151
f 153/77/153 150/181/150 149/76/149
f 156/78/156 151/182/151 155/151/155
f 157/80/157 154/183/154 153/79/153
f 160/82/160 155/184/155 159/157/159
f 98/39/98 158/185/158 157/38/157
f 103/43/103 159/157/159 104/32/104
f 34/186/34 38/187/38 33/188/33
f 35/162/35 39/189/39 40/95/40
f 37/164/37 42/190/42 38/187/38
f 40/95/40 43/92/43 44/93/44
f 41/98/41 46/191/46 42/190/42
f 44/93/44 47/192/47 48/99/48
f 45/103/45 50/193/50 46/191/46
f 48/106/48 51/194/51 52/104/52
f 53/109/53 50/193/50 49/107/49
f 56/111/56 51/194/51 55/195/55
f 57/113/57 54/196/54 53/109/53
f 60/115/60 55/195/55 59/91/59
f 61/117/61 58/197/58 57/113/57
f 64/119/64 59/91/59 63/198/63
f 65/122/65 62/87/62 61/120/61
f 68/125/68 63/198/63 67/199/67
f 65/122/65 70/200/70 66/201/66
f 68/125/68 71/202/71 72/128/72
f 69/132/69 74/203/74 70/200/70
f 72/135/72 75/90/75 76/133/76
f 73/131/73 78/88/78 74/203/74
f 76/140/76 79/204/79 80/138/80
f 77/137/77 82/205/82 78/88/78
f 80/138/80 83/206/83 84/143/84
f 85/146/85 82/205/82 81/142/81
f 88/148/88 83/206/83 87/207/87
f 89/150/89 86/208/86 85/146/85
f 92/153/92 87/207/87 91/209/91
f 93/156/93 90/210/90 89/154/89
f 96/159/96 91/209/91 95/211/95
f 34/37/34 94/89/94 93/35/93
f 35/34/35 95/211/95 36/212/36
f 97/165/97 37/213/37 34/186/34
f 1/1/1 31/4/31 32/2/32
f 31/4/31 29/6/29 30/5/30
f 29/6/29 27/8/27 28/7/28
f 27/8/27 25/214/25 26/9/26
f 26/9/26 25/214/25 23/10/23
f 23/10/23 21/13/21 22/12/22
f 21/13/21 19/15/19 20/14/20
f 19/15/19 17/17/17 18/16/18
f 17/17/17 15/19/15 16/18/16
f 15/19/15 13/21/13 14/20/14
f 13/21/13 11/23/11 12/22/12
f 11/23/11 9/25/9 10/24/10
f 9/25/9 7/27/7 8/26/8
f 7/27/7 5/29/5 6/28/6
f 5/29/5 2/31/2 3/30/3
f 2/31/2 1/1/1 4/3/4
f 104/32/104 159/157/159 96/33/96
f 93/35/93 158/185/158 97/36/97
f 157/38/157 31/4/31 1/1/1
f 108/40/108 6/28/6 3/30/3
f 102/42/102 3/30/3 4/3/4
f 4/3/4 32/2/32 160/44/160
f 112/45/112 8/26/8 6/28/6
f 7/27/7 9/25/9 113/46/113
f 116/48/116 10/24/10 8/26/8
f 113/46/113 9/25/9 11/23/11
f 12/22/12 10/24/10 116/48/116
f 117/51/117 11/23/11 13/21/13
f 14/20/14 12/22/12 120/53/120
f 121/52/121 13/21/13 15/19/15
f 16/18/16 14/20/14 124/56/124
f 125/55/125 15/19/15 17/17/17
f 18/16/18 16/18/16 128/59/128
f 17/17/17 19/15/19 133/61/133
f 136/63/136 20/14/20 18/16/18
f 19/15/19 21/13/21 137/65/137
f 140/67/140 22/12/22 20/14/20
f 21/13/21 23/10/23 141/69/141
f 144/71/144 24/11/24 22/12/22
f 23/10/23 25/214/25 145/72/145
f 148/73/148 26/9/26 24/11/24
f 145/72/145 25/214/25 27/8/27
f 28/7/28 26/9/26 148/73/148
f 149/76/149 27/8/27 29/6/29
f 30/5/30 28/7/28 152/75/152
f 153/79/153 29/6/29 31/4/31
f 32/2/32 30/5/30 156/81/156
f 2/31/2 5/29/5 105/83/105
f 5/29/5 7/27/7 109/85/109
f 94/89/94 33/188/33 38/187/38
f 38/187/38 42/190/42 46/191/46
f 46/191/46 50/193/50 54/196/54
f 54/196/54 58/197/58 62/87/62
f 62/87/62 66/201/66 70/200/70
f 70/200/70 74/203/74 78/88/78
f 78/88/78 82/205/82 86/208/86
f 86/208/86 90/210/90 94/89/94
f 94/89/94 38/187/38 46/191/46
f 46/191/46 54/196/54 62/87/62
f 62/87/62 70/200/70 78/88/78
f 78/88/78 86/208/86 94/89/94
f 94/89/94 46/191/46 62/87/62
f 43/92/43 39/189/39 36/212/36
f 36/212/36 95/211/95 91/209/91
f 91/209/91 87/207/87 83/206/83
f 83/206/83 79/204/79 75/90/75
f 75/90/75 71/202/71 67/199/67
f 67/199/67 63/198/63 59/91/59
f 59/91/59 55/195/55 51/194/51
f 51/194/51 47/192/47 43/92/43
f 43/92/43 36/212/36 91/209/91
f 91/209/91 83/206/83 75/90/75
f 75/90/75 67/199/67 59/91/59
f 59/91/59 51/194/51 43/92/43
f 43/92/43 91/209/91 75/90/75
f 44/93/44 107/100/107 101/94/101
f 106/96/106 110/167/110 45/97/45
f 48/99/48 111/168/111 107/100/107
f 110/101/110 114/169/114 49/102/49
f 52/104/52 115/170/115 111/105/111
f 49/107/49 114/169/114 118/108/118
f 119/110/119 115/171/115 52/104/52
f 53/109/53 118/172/118 122/112/122
f 123/114/123 119/110/119 56/111/56
f 57/113/57 122/112/122 126/116/126
f 127/118/127 123/173/123 60/115/60
f 61/120/61 126/116/126 130/121/130
f 131/123/131 127/174/127 64/124/64
f 130/126/130 134/130/134 69/127/69
f 72/128/72 135/134/135 131/129/131
f 134/130/134 138/175/138 73/131/73
f 76/133/76 139/176/139 135/134/135
f 138/136/138 142/141/142 77/137/77
f 80/138/80 143/144/143 139/139/139
f 142/141/142 146/177/146 81/142/81
f 84/143/84 147/178/147 143/144/143
f 81/142/81 146/179/146 150/145/150
f 151/147/151 147/180/147 84/143/84
f 85/146/85 150/181/150 154/149/154
f 155/151/155 151/182/151 88/152/88
f 89/154/89 154/183/154 158/155/158
f 159/157/159 155/184/155 92/158/92
f 1/1/1 2/31/2 99/84/99
f 40/95/40 101/94/101 104/161/104
f 100/163/100 106/166/106 41/98/41
f 98/160/98 99/84/99 100/163/100
f 103/43/103 104/161/104 101/94/101
f 99/84/99 105/83/105 106/166/106
f 102/41/102 101/94/101 107/100/107
f 105/86/105 109/85/109 110/167/110
f 108/40/108 107/100/107 111/168/111
f 109/47/109 113/46/113 114/169/114
f 112/45/112 111/105/111 115/170/115
f 117/49/117 118/108/118 114/169/114
f 120/50/120 116/48/116 115/171/115
f 121/52/121 122/112/122 118/172/118
f 124/54/124 120/53/120 119/110/119
f 125/55/125 126/116/126 122/112/122
f 128/57/128 124/56/124 123/173/123
f 129/58/129 130/121/130 126/116/126
f 132/60/132 128/59/128 127/174/127
f 129/62/129 133/61/133 134/130/134
f 132/64/132 131/129/131 135/134/135
f 133/66/133 137/65/137 138/175/138
f 136/68/136 135/134/135 139/176/139
f 137/70/137 141/69/141 142/141/142
f 140/67/140 139/139/139 143/144/143
f 141/69/141 145/72/145 146/177/146
f 144/71/144 143/144/143 147/178/147
f 149/74/149 150/145/150 146/179/146
f 152/75/152 148/73/148 147/180/147
f 153/77/153 154/149/154 150/181/150
f 156/78/156 152/75/152 151/182/151
f 157/80/157 158/155/158 154/183/154
f 160/82/160 156/81/156 155/184/155
f 98/39/98 97/36/97 158/185/158
f 103/43/103 160/44/160 159/157/159
f 34/186/34 37/213/37 38/187/38
f 35/162/35 36/212/36 39/189/39
f 37/164/37 41/98/41 42/190/42
f 40/95/40 39/189/39 43/92/43
f 41/98/41 45/97/45 46/191/46
f 44/93/44 43/92/43 47/192/47
f 45/103/45 49/102/49 50/193/50
f 48/106/48 47/192/47 51/194/51
f 53/109/53 54/196/54 50/193/50
f 56/111/56 52/104/52 51/194/51
f 57/113/57 58/197/58 54/196/54
f 60/115/60 56/111/56 55/195/55
f 61/117/61 62/87/62 58/197/58
f 64/119/64 60/115/60 59/91/59
f 65/122/65 66/201/66 62/87/62
f 68/125/68 64/124/64 63/198/63
f 65/122/65 69/127/69 70/200/70
f 68/125/68 67/199/67 71/202/71
f 69/132/69 73/131/73 74/203/74
f 72/135/72 71/202/71 75/90/75
f 73/131/73 77/137/77 78/88/78
f 76/140/76 75/90/75 79/204/79
f 77/137/77 81/142/81 82/205/82
f 80/138/80 79/204/79 83/206/83
f 85/146/85 86/208/86 82/205/82
f 88/148/88 84/143/84 83/206/83
f 89/150/89 90/210/90 86/208/86
f 92/153/92 88/152/88 87/207/87
f 93/156/93 94/89/94 90/210/90
f 96/159/96 92/158/92 91/209/91
f 34/37/34 33/188/33 94/89/94
f 35/34/35 96/33/96 95/211/95
f 97/165/97 100/163/100 37/213/37
