# Blender 4.2.0
# www.blender.org
o Cylinder.006
v 0.071222 0.000000 0.000000
v 0.071222 0.000000 -0.533386
v 0.065801 0.027256 0.000000
v 0.065801 0.027256 -0.533386
v 0.050362 0.050362 0.000000
v 0.050362 0.050362 -0.533386
v 0.027256 0.065801 0.000000
v 0.027256 0.065801 -0.533386
v 0.000000 0.071222 0.000000
v 0.000000 0.071222 -0.533386
v -0.027256 0.065801 0.000000
v -0.027256 0.065801 -0.533386
v -0.050362 0.050362 0.000000
v -0.050362 0.050362 -0.533386
v -0.065801 0.027256 0.000000
v -0.065801 0.027256 -0.533386
v -0.071222 -0.000000 0.000000
v -0.071222 -0.000000 -0.533386
v -0.065801 -0.027256 0.000000
v -0.065801 -0.027256 -0.533386
v -0.050362 -0.050362 0.000000
v -0.050362 -0.050362 -0.533386
v -0.027256 -0.065801 0.000000
v -0.027256 -0.065801 -0.533386
v 0.000000 -0.071222 0.000000
v 0.000000 -0.071222 -0.533386
v 0.027256 -0.065801 0.000000
v 0.027256 -0.065801 -0.533386
v 0.050362 -0.050362 0.000000
v 0.050362 -0.050362 -0.533386
v 0.065801 -0.027256 0.000000
v 0.065801 -0.027256 -0.533386
v 0.139587 -0.000000 -0.533387
v 0.128961 0.053417 -0.533387
v 0.098703 0.098703 -0.533387
v 0.053418 0.128961 -0.533387
v 0.000000 0.139587 -0.533387
v -0.053417 0.128961 -0.533387
v -0.098702 0.098703 -0.533387
v -0.128961 0.053417 -0.533387
v -0.139586 -0.000000 -0.533387
v -0.128961 -0.053417 -0.533387
v -0.098702 -0.098703 -0.533387
v -0.053417 -0.128961 -0.533387
v 0.000000 -0.139587 -0.533387
v 0.053418 -0.128961 -0.533387
v 0.098703 -0.098703 -0.533387
v 0.128961 -0.053417 -0.533387
v 0.128961 0.053417 -0.606121
v 0.139587 -0.000000 -0.606121
v 0.098703 0.098703 -0.606121
v 0.053418 0.128961 -0.606121
v 0.000000 0.139587 -0.606121
v -0.053417 0.128961 -0.606121
v -0.098702 0.098703 -0.606121
v -0.128961 0.053417 -0.606121
v -0.139586 -0.000000 -0.606121
v -0.128961 -0.053417 -0.606121
v -0.098702 -0.098703 -0.606121
v -0.053417 -0.128961 -0.606121
v 0.000000 -0.139587 -0.606121
v 0.053418 -0.128961 -0.606121
v 0.098703 -0.098703 -0.606121
v 0.128961 -0.053417 -0.606121
v -0.104286 0.062120 -0.689419
v -0.104286 0.062120 -0.600873
v 0.104286 0.062120 -0.689419
v 0.104286 0.062120 -0.600873
v -0.104286 -0.062120 -0.689419
v -0.104286 -0.062120 -0.600873
v 0.104286 -0.062120 -0.689419
v 0.104286 -0.062120 -0.600873
v -0.025630 -0.297701 -0.739198
v 0.025629 -0.297701 -0.739198
v -0.067013 0.112351 -0.707487
v 0.067013 0.112351 -0.707487
v 0.067013 0.112351 -0.600873
v -0.067013 0.112351 -0.600873
v 0.067013 -0.112352 -0.707487
v -0.067013 -0.112352 -0.707487
v -0.025630 -0.204680 -0.743031
v 0.025629 -0.204680 -0.743031
v 0.029714 -0.297701 -0.681593
v 0.016551 -0.297701 -0.659673
v -0.016552 -0.297701 -0.659673
v -0.029714 -0.297701 -0.681593
v -0.067013 -0.112352 -0.630963
v -0.037328 -0.112352 -0.600873
v -0.067013 -0.103222 -0.600873
v -0.077294 -0.103787 -0.600873
v 0.037328 -0.112352 -0.600873
v 0.067013 -0.112352 -0.630963
v 0.077294 -0.103787 -0.600873
v 0.067013 -0.103222 -0.600873
v -0.029714 -0.242475 -0.666507
v -0.016552 -0.242475 -0.636417
v 0.029714 -0.242475 -0.666507
v 0.016551 -0.242475 -0.636417
v 0.067013 -0.204680 -1.209596
v 0.002943 -0.204680 -1.274316
v 0.063877 -0.204680 -1.229596
v 0.054777 -0.204680 -1.247638
v 0.040602 -0.204680 -1.261956
v 0.022741 -0.204680 -1.271149
v -0.002943 -0.204680 -1.274316
v -0.067013 -0.204680 -1.209596
v -0.022742 -0.204680 -1.271149
v -0.040602 -0.204680 -1.261956
v -0.054777 -0.204680 -1.247638
v -0.063877 -0.204680 -1.229596
v -0.067013 -0.297701 -1.209596
v -0.002943 -0.297701 -1.274316
v -0.063877 -0.297701 -1.229596
v -0.054777 -0.297701 -1.247638
v -0.040602 -0.297701 -1.261956
v -0.022742 -0.297701 -1.271149
v 0.002943 -0.297701 -1.274316
v 0.067013 -0.297701 -1.209596
v 0.022741 -0.297701 -1.271149
v 0.040602 -0.297701 -1.261956
v 0.054777 -0.297701 -1.247638
v 0.063877 -0.297701 -1.229596
v -0.067013 -0.204680 -1.169008
v -0.025630 -0.204680 -1.132319
v -0.025630 -0.297701 -1.131610
v -0.067013 -0.297701 -1.168299
v 0.025629 -0.204680 -1.132319
v 0.067013 -0.204680 -1.169008
v 0.067013 -0.297701 -1.168299
v 0.025629 -0.297701 -1.131610
vn 1.0000 -0.0000 -0.0000
vn 0.9239 0.3827 -0.0000
vn 0.7071 0.7071 -0.0000
vn 0.3827 0.9239 -0.0000
vn -0.0000 1.0000 -0.0000
vn -0.3827 0.9239 -0.0000
vn -0.7071 0.7071 -0.0000
vn -0.9239 0.3827 -0.0000
vn -1.0000 -0.0000 -0.0000
vn -0.9239 -0.3827 -0.0000
vn -0.7071 -0.7071 -0.0000
vn -0.3827 -0.9239 -0.0000
vn -0.0000 -1.0000 -0.0000
vn 0.3827 -0.9239 -0.0000
vn 0.7071 -0.7071 -0.0000
vn -0.0000 -0.0000 -1.0000
vn 0.9239 -0.3827 -0.0000
vn -0.0000 -0.0000 1.0000
vn 0.3572 -0.0225 -0.9338
vn 0.9551 -0.2106 0.2084
vn 0.9947 -0.0748 -0.0704
vn 0.9495 0.3138 -0.0000
vn 0.7927 -0.2077 -0.5731
vn 0.7927 0.2077 -0.5731
vn -0.9947 -0.0748 -0.0704
vn -0.9921 -0.0359 0.1203
vn -0.9551 -0.2106 0.2084
vn -0.9548 -0.2941 -0.0442
vn -0.7927 0.2077 -0.5731
vn -0.7927 -0.2077 -0.5731
vn 0.4495 0.8933 -0.0000
vn 0.2003 0.2827 -0.9381
vn 0.0835 -0.1778 0.9805
vn -0.3572 -0.0225 -0.9338
vn -0.2003 0.2827 -0.9381
vn -0.0835 -0.1778 0.9805
vn 0.2791 -0.3491 0.8946
vn -0.0000 -0.7073 0.7069
vn -0.4495 0.8933 -0.0000
vn -0.8239 -0.5022 0.2628
vn 0.0749 -0.0000 -0.9972
vn -0.0749 -0.0000 -0.9972
vn 0.9921 -0.0359 0.1203
vn 0.9993 -0.0016 -0.0385
vn -0.0000 0.6264 -0.7795
vn 0.9548 -0.2941 -0.0442
vn 0.8239 -0.5022 0.2628
vn -0.1151 -0.9506 0.2884
vn -0.4892 -0.8685 0.0801
vn 0.1151 -0.9506 0.2884
vn -0.2791 -0.3491 0.8946
vn 0.8792 -0.1537 0.4510
vn -0.8792 -0.1537 0.4510
vn -0.8801 0.0036 0.4748
vn -0.9969 -0.0000 -0.0781
vn -0.8736 0.0037 0.4866
vn 0.8801 0.0036 0.4748
vn 0.8736 0.0037 0.4866
vn 0.2781 -0.0000 -0.9606
vn 0.5701 -0.0000 -0.8216
vn 0.8026 -0.0000 -0.5966
vn 0.9497 -0.0000 -0.3131
vn 0.9969 -0.0000 -0.0781
vn -0.2781 -0.0000 -0.9606
vn -0.5701 -0.0000 -0.8216
vn -0.8026 -0.0000 -0.5966
vn -0.9497 -0.0000 -0.3131
vn -0.9993 -0.0016 -0.0385
vn -0.9495 0.3138 -0.0000
vn 0.4892 -0.8685 0.0801
vt 0.896855 0.810957
vt 0.891173 0.442115
vt 0.896855 0.442036
vt 0.891173 0.811037
vt 0.886473 0.442309
vt 0.882172 0.734700
vt 0.881631 0.442830
vt 0.886474 0.444922
vt 0.877330 0.732608
vt 0.875894 0.442036
vt 0.871593 0.731813
vt 0.870136 0.442660
vt 0.865834 0.732437
vt 0.865233 0.444607
vt 0.927159 0.369195
vt 0.922460 0.000079
vt 0.927159 0.000273
vt 0.916778 0.368921
vt 0.916778 -0.000000
vt 0.910978 0.000047
vt 0.910978 0.368968
vt 0.905944 0.000213
vt 0.905944 0.369390
vt 0.901071 0.000074
vt 0.905944 0.000000
vt 0.901071 0.369465
vt 0.895323 0.000101
vt 0.895323 0.369491
vt 0.889575 0.000074
vt 0.889575 0.369465
vt 0.884701 0.000000
vt 0.860736 0.747560
vt 0.860932 0.734384
vt 0.907688 0.811170
vt 0.902654 0.442082
vt 0.907688 0.442248
vt 0.902654 0.811004
vt 0.386534 0.975897
vt 0.398336 0.958234
vt 0.415998 0.970036
vt 0.738202 0.901152
vt 0.730079 0.941985
vt 0.689246 0.933863
vt 0.543377 0.945552
vt 0.540214 0.919921
vt 0.581534 0.914823
vt 0.791754 0.940735
vt 0.780488 0.991157
vt 0.780488 0.940786
vt 0.555379 0.872842
vt 0.549208 0.914823
vt 0.544369 0.875601
vt 0.769222 0.991106
vt 0.769222 0.940735
vt 0.535374 0.880699
vt 0.759671 0.990960
vt 0.759671 0.940589
vt 0.930134 0.931432
vt 0.920923 0.981360
vt 0.920923 0.931053
vt 0.991183 0.181971
vt 0.981317 0.231953
vt 0.981317 0.181646
vt 0.909787 0.930897
vt 0.909787 0.981205
vt 0.969951 0.181554
vt 0.958815 0.232017
vt 0.958815 0.181710
vt 0.969951 0.231861
vt 0.898421 0.981296
vt 0.898421 0.930989
vt 0.949604 0.232397
vt 0.949604 0.182089
vt 0.888555 0.981622
vt 0.888555 0.931314
vt 0.576694 0.875601
vt 0.571570 0.912064
vt 0.566731 0.872842
vt 0.801305 0.940589
vt 0.791754 0.991106
vt 0.560219 0.912064
vt 0.648455 0.074144
vt 0.676266 0.046157
vt 0.668350 0.099155
vt 0.611303 0.000074
vt 0.637471 0.061244
vt 0.611303 0.061318
vt 0.707732 0.099155
vt 0.688184 0.056558
vt 0.699816 0.046157
vt 0.738611 -0.000000
vt 0.764779 0.061318
vt 0.738611 0.061243
vt 0.601127 0.000539
vt 0.601127 0.074279
vt 0.875974 0.343206
vt 0.879131 0.433475
vt 0.865772 0.439842
vt 0.317542 0.921957
vt 0.339548 0.920032
vt 0.345808 0.967422
vt 0.727627 0.074144
vt 0.774955 0.074279
vt 0.323802 0.920032
vt 0.335166 0.892588
vt 0.353669 0.956828
vt 0.345808 0.921957
vt 0.347977 0.921838
vt 0.646240 0.522394
vt 0.674507 0.551791
vt 0.646240 0.551791
vt 0.876835 0.031552
vt 0.865163 0.071446
vt 0.867077 0.016372
vt 0.674507 0.522394
vt 0.646240 0.464466
vt 0.674507 0.464466
vt 0.774955 0.000539
vt 0.727627 0.021216
vt 0.660994 0.871850
vt 0.659753 0.884020
vt 0.659753 0.871850
vt 0.687899 0.056558
vt 0.687943 0.096449
vt 0.309681 0.956828
vt 0.309681 0.930625
vt 0.665779 0.583182
vt 0.654968 0.583182
vt 0.637471 0.000000
vt 0.648455 0.021216
vt 0.597935 0.836210
vt 0.595779 0.815440
vt 0.597935 0.815218
vt 0.589556 0.857202
vt 0.591713 0.836432
vt 0.597936 0.837122
vt 0.699673 0.025498
vt 0.688041 0.041551
vt 0.676409 0.025498
vt 0.688041 0.041551
vt 0.648777 0.000750
vt 0.874059 0.000000
vt 0.867077 0.000000
vt 0.708180 0.393304
vt 0.688588 0.421322
vt 0.688588 0.392758
vt 0.687943 0.367864
vt 0.668350 0.368410
vt 0.665170 0.882298
vt 0.660994 0.884020
vt 0.668382 0.464466
vt 0.687781 0.457844
vt 0.687974 0.464411
vt 0.668188 0.457900
vt 0.687627 0.447776
vt 0.668034 0.447832
vt 0.687528 0.435191
vt 0.667936 0.435247
vt 0.687495 0.421322
vt 0.655577 0.870129
vt 0.688108 0.464411
vt 0.707894 0.457900
vt 0.707701 0.464466
vt 0.688302 0.457844
vt 0.708048 0.447832
vt 0.688554 0.435191
vt 0.708146 0.435247
vt 0.708180 0.421377
vt 0.665779 0.794697
vt 0.668937 0.865134
vt 0.667902 0.393304
vt 0.667902 0.421377
vt 0.707732 0.368410
vt 0.687495 0.392758
vt 0.688139 0.367864
vt 0.688139 0.096449
vt 0.886473 0.811230
vt 0.922460 0.369001
vt 0.905944 0.369134
vt 0.884701 0.369390
vt 0.885383 0.737770
vt 0.886474 0.741353
vt 0.885277 0.744901
vt 0.881977 0.747875
vt 0.877074 0.749822
vt 0.871316 0.750446
vt 0.865579 0.749652
vt 0.857525 0.744489
vt 0.856435 0.740907
vt 0.857631 0.737358
vt 0.415998 0.975897
vt 0.413755 0.981312
vt 0.409611 0.985456
vt 0.404196 0.987699
vt 0.398336 0.987699
vt 0.392921 0.985456
vt 0.388777 0.981312
vt 0.386534 0.970036
vt 0.388777 0.964621
vt 0.392921 0.960477
vt 0.404196 0.958234
vt 0.409611 0.960477
vt 0.413755 0.964621
vt 0.684850 0.923251
vt 0.684850 0.911764
vt 0.689246 0.901152
vt 0.697368 0.893029
vt 0.707981 0.888634
vt 0.719467 0.888634
vt 0.730079 0.893029
vt 0.742597 0.911764
vt 0.742597 0.923250
vt 0.738202 0.933863
vt 0.719467 0.946381
vt 0.707981 0.946381
vt 0.697368 0.941985
vt 0.588593 0.919921
vt 0.591673 0.926582
vt 0.590305 0.933793
vt 0.584697 0.940454
vt 0.575702 0.945552
vt 0.564692 0.948312
vt 0.553340 0.948312
vt 0.536317 0.940454
vt 0.533238 0.933793
vt 0.534606 0.926583
vt 0.930134 0.981740
vt 0.991183 0.232278
vt 0.801305 0.990960
vt 0.764779 0.000074
vt 0.865163 0.343206
vt 0.875974 0.071446
vt 0.884701 0.368615
vt 0.884701 0.397215
vt 0.856435 0.397215
vt 0.856435 0.368615
vt 0.859016 0.423560
vt 0.857096 0.411065
vt 0.862005 0.433475
vt 0.871189 0.442036
vt 0.869948 0.442036
vt 0.875364 0.439842
vt 0.884040 0.411065
vt 0.882121 0.423560
vt 0.317542 0.967422
vt 0.328184 0.892588
vt 0.353669 0.930625
vt 0.874059 0.016372
vt 0.864301 0.031552
vt 0.315373 0.921838
vt 0.729542 0.000289
vt 0.646540 0.000289
vt 0.589556 0.816130
vt 0.589556 0.836210
vt 0.727305 0.000750
vt 0.665170 0.870129
vt 0.655577 0.882298
vt 0.688455 0.447776
vt 0.654968 0.794697
vt 0.674507 0.814632
vt 0.674507 0.836685
vt 0.646240 0.836685
vt 0.646240 0.814632
vt 0.648821 0.857354
vt 0.646902 0.847552
vt 0.651810 0.865134
vt 0.673845 0.847552
vt 0.671926 0.857354
s 1
f 2/1/1 3/2/2 1/3/1
f 4/4/2 5/5/3 3/2/2
f 6/6/3 7/7/4 5/8/3
f 8/9/4 9/10/5 7/7/4
f 10/11/5 11/12/6 9/10/5
f 12/13/6 13/14/7 11/12/6
f 14/15/7 15/16/8 13/17/7
f 15/16/8 18/18/9 17/19/9
f 18/18/9 19/20/10 17/19/9
f 20/21/10 21/22/11 19/20/10
f 22/23/11 23/24/12 21/25/11
f 24/26/12 25/27/13 23/24/12
f 26/28/13 27/29/14 25/27/13
f 28/30/14 29/31/15 27/29/14
f 22/32/16 14/33/16 6/6/16
f 30/34/15 31/35/17 29/36/15
f 32/37/17 1/3/1 31/35/17
f 15/38/18 23/39/18 31/40/18
f 41/41/18 45/42/18 33/43/18
f 59/44/16 55/45/16 51/46/16
f 44/47/12 61/48/13 45/49/13
f 37/50/5 54/51/6 38/52/6
f 45/49/13 62/53/14 46/54/14
f 38/52/6 55/45/7 39/55/7
f 46/54/14 63/56/15 47/57/15
f 39/58/7 56/59/8 40/60/8
f 47/61/15 64/62/17 48/63/17
f 41/64/9 56/59/8 57/65/9
f 33/66/1 49/67/2 34/68/2
f 48/63/17 50/69/1 33/66/1
f 41/64/9 58/70/10 42/71/10
f 34/68/2 51/72/3 35/73/3
f 42/71/10 59/74/11 43/75/11
f 35/76/3 52/77/4 36/78/4
f 43/79/11 60/80/12 44/47/12
f 36/78/4 53/81/5 37/50/5
f 79/82/19 97/83/20 82/84/21
f 68/85/22 71/86/23 67/87/24
f 81/88/25 86/89/26 95/90/27
f 70/91/28 65/92/29 69/93/30
f 77/94/31 67/87/24 76/95/32
f 125/96/13 115/97/13 119/98/13
f 89/99/18 91/100/33 77/101/18
f 80/102/34 65/92/29 75/103/35
f 88/104/36 98/105/37 91/100/33
f 71/86/23 76/95/32 67/87/24
f 68/106/18 94/107/18 93/108/18
f 75/109/35 79/110/19 80/111/34
f 86/112/13 74/113/13 84/114/38
f 76/115/32 78/116/39 77/117/31
f 65/92/29 78/118/39 75/103/35
f 80/102/34 95/90/27 87/119/40
f 100/120/41 112/121/42 105/122/42
f 82/84/21 83/123/43 74/124/44
f 89/99/18 66/125/18 70/126/18
f 80/111/34 82/127/45 81/128/45
f 87/119/40 70/91/28 69/93/30
f 72/129/46 92/130/47 79/82/19
f 87/131/40 89/132/48 90/133/49
f 92/134/47 94/135/50 91/136/33
f 96/137/51 87/119/40 95/90/27
f 84/138/52 97/83/20 98/139/37
f 85/140/53 95/90/27 86/89/26
f 98/139/37 92/130/47 91/141/33
f 96/142/51 84/114/38 98/143/37
f 123/144/54 111/145/55 126/146/56
f 82/84/21 130/147/57 127/148/58
f 100/120/41 119/149/59 117/150/41
f 104/151/59 120/152/60 119/153/59
f 103/154/60 121/155/61 120/152/60
f 102/156/61 122/157/62 121/155/61
f 101/158/62 118/159/63 122/157/62
f 112/121/42 107/160/64 105/122/42
f 116/161/64 108/162/65 107/163/64
f 115/164/65 109/165/66 108/162/65
f 109/165/66 113/166/67 110/167/67
f 110/167/67 111/145/55 106/168/55
f 127/169/5 103/170/5 107/160/5
f 128/171/57 118/159/63 99/172/63
f 126/146/56 124/173/56 123/144/54
f 129/174/58 127/148/58 130/147/57
f 81/88/25 125/175/54 73/176/68
f 2/1/1 4/4/2 3/2/2
f 4/4/2 6/177/3 5/5/3
f 6/6/3 8/9/4 7/7/4
f 8/9/4 10/11/5 9/10/5
f 10/11/5 12/13/6 11/12/6
f 12/13/6 14/33/7 13/14/7
f 14/15/7 16/178/8 15/16/8
f 15/16/8 16/178/8 18/18/9
f 18/18/9 20/21/10 19/20/10
f 20/21/10 22/179/11 21/22/11
f 22/23/11 24/26/12 23/24/12
f 24/26/12 26/28/13 25/27/13
f 26/28/13 28/30/14 27/29/14
f 28/30/14 30/180/15 29/31/15
f 6/6/16 4/181/16 2/182/16
f 2/182/16 32/183/16 30/184/16
f 30/184/16 28/185/16 26/186/16
f 26/186/16 24/187/16 22/32/16
f 22/32/16 20/188/16 18/189/16
f 18/189/16 16/190/16 14/33/16
f 14/33/16 12/13/16 10/11/16
f 10/11/16 8/9/16 6/6/16
f 6/6/16 2/182/16 30/184/16
f 30/184/16 26/186/16 22/32/16
f 22/32/16 18/189/16 14/33/16
f 14/33/16 10/11/16 6/6/16
f 6/6/16 30/184/16 22/32/16
f 30/34/15 32/37/17 31/35/17
f 32/37/17 2/1/1 1/3/1
f 31/40/18 1/191/18 3/192/18
f 3/192/18 5/193/18 7/194/18
f 7/194/18 9/195/18 11/196/18
f 11/196/18 13/197/18 15/38/18
f 15/38/18 17/198/18 19/199/18
f 19/199/18 21/200/18 23/39/18
f 23/39/18 25/201/18 27/202/18
f 27/202/18 29/203/18 31/40/18
f 31/40/18 3/192/18 7/194/18
f 7/194/18 11/196/18 15/38/18
f 15/38/18 19/199/18 23/39/18
f 23/39/18 27/202/18 31/40/18
f 31/40/18 7/194/18 15/38/18
f 33/43/18 34/204/18 35/205/18
f 35/205/18 36/206/18 37/207/18
f 37/207/18 38/208/18 39/209/18
f 39/209/18 40/210/18 41/41/18
f 41/41/18 42/211/18 43/212/18
f 43/212/18 44/213/18 45/42/18
f 45/42/18 46/214/18 47/215/18
f 47/215/18 48/216/18 33/43/18
f 33/43/18 35/205/18 37/207/18
f 37/207/18 39/209/18 41/41/18
f 41/41/18 43/212/18 45/42/18
f 45/42/18 47/215/18 33/43/18
f 33/43/18 37/207/18 41/41/18
f 51/46/16 49/217/16 50/218/16
f 50/218/16 64/219/16 63/220/16
f 63/220/16 62/221/16 61/222/16
f 61/222/16 60/223/16 59/44/16
f 59/44/16 58/224/16 57/225/16
f 57/225/16 56/226/16 55/45/16
f 55/45/16 54/51/16 53/81/16
f 53/81/16 52/77/16 51/46/16
f 51/46/16 50/218/16 63/220/16
f 63/220/16 61/222/16 59/44/16
f 59/44/16 57/225/16 55/45/16
f 55/45/16 53/81/16 51/46/16
f 51/46/16 63/220/16 59/44/16
f 44/47/12 60/80/12 61/48/13
f 37/50/5 53/81/5 54/51/6
f 45/49/13 61/48/13 62/53/14
f 38/52/6 54/51/6 55/45/7
f 46/54/14 62/53/14 63/56/15
f 39/58/7 55/227/7 56/59/8
f 47/61/15 63/228/15 64/62/17
f 41/64/9 40/60/8 56/59/8
f 33/66/1 50/69/1 49/67/2
f 48/63/17 64/62/17 50/69/1
f 41/64/9 57/65/9 58/70/10
f 34/68/2 49/67/2 51/72/3
f 42/71/10 58/70/10 59/74/11
f 35/76/3 51/46/3 52/77/4
f 43/79/11 59/229/11 60/80/12
f 36/78/4 52/77/4 53/81/5
f 79/82/19 92/130/47 97/83/20
f 68/85/22 72/129/46 71/86/23
f 81/88/25 73/176/68 86/89/26
f 70/91/28 66/230/69 65/92/29
f 77/94/31 68/85/22 67/87/24
f 130/231/13 74/113/13 73/232/13
f 125/96/13 126/233/13 111/234/13
f 130/231/13 73/232/13 125/96/13
f 118/235/13 129/236/13 130/231/13
f 121/237/13 122/238/13 118/235/13
f 119/98/13 120/239/13 121/237/13
f 112/240/13 117/241/13 119/98/13
f 115/97/13 116/242/13 112/240/13
f 113/243/13 114/244/13 115/97/13
f 125/96/13 111/234/13 113/243/13
f 118/235/13 130/231/13 125/96/13
f 119/98/13 121/237/13 118/235/13
f 115/97/13 112/240/13 119/98/13
f 125/96/13 113/243/13 115/97/13
f 119/98/13 118/235/13 125/96/13
f 77/101/18 78/245/18 89/99/18
f 89/99/18 88/104/36 91/100/33
f 91/100/33 94/107/18 77/101/18
f 80/102/34 69/93/30 65/92/29
f 88/104/36 96/246/51 98/105/37
f 71/86/23 79/82/19 76/95/32
f 93/108/18 72/247/18 68/106/18
f 68/106/18 77/101/18 94/107/18
f 75/109/35 76/115/32 79/110/19
f 84/114/38 85/248/38 86/112/13
f 86/112/13 73/232/13 74/113/13
f 74/113/13 83/249/13 84/114/38
f 76/115/32 75/109/35 78/116/39
f 65/92/29 66/230/69 78/118/39
f 80/102/34 81/88/25 95/90/27
f 100/120/41 117/150/41 112/121/42
f 82/84/21 97/83/20 83/123/43
f 70/126/18 90/250/18 89/99/18
f 89/99/18 78/245/18 66/125/18
f 80/111/34 79/110/19 82/127/45
f 69/93/30 80/102/34 87/119/40
f 87/119/40 90/251/49 70/91/28
f 79/82/19 71/86/23 72/129/46
f 72/129/46 93/252/70 92/130/47
f 87/131/40 88/253/36 89/132/48
f 92/134/47 93/254/70 94/135/50
f 96/137/51 88/255/36 87/119/40
f 84/138/52 83/123/43 97/83/20
f 85/140/53 96/137/51 95/90/27
f 98/139/37 97/83/20 92/130/47
f 96/142/51 85/248/38 84/114/38
f 123/144/54 106/168/55 111/145/55
f 82/84/21 74/124/44 130/147/57
f 100/120/41 104/256/59 119/149/59
f 104/151/59 103/154/60 120/152/60
f 103/154/60 102/156/61 121/155/61
f 102/156/61 101/158/62 122/157/62
f 101/158/62 99/172/63 118/159/63
f 112/121/42 116/257/64 107/160/64
f 116/161/64 115/164/65 108/162/65
f 115/164/65 114/258/66 109/165/66
f 109/165/66 114/258/66 113/166/67
f 110/167/67 113/166/67 111/145/55
f 124/259/5 81/128/45 82/127/45
f 127/169/5 128/260/5 99/261/5
f 124/259/5 82/127/45 127/169/5
f 106/262/5 123/263/5 124/259/5
f 109/264/5 110/265/5 106/262/5
f 107/160/5 108/266/5 109/264/5
f 100/120/5 105/122/5 107/160/5
f 103/170/5 104/256/5 100/120/5
f 101/267/5 102/268/5 103/170/5
f 127/169/5 99/261/5 101/267/5
f 106/262/5 124/259/5 127/169/5
f 107/160/5 109/264/5 106/262/5
f 103/170/5 100/120/5 107/160/5
f 127/169/5 101/267/5 103/170/5
f 107/160/5 106/262/5 127/169/5
f 128/171/57 129/174/58 118/159/63
f 126/146/56 125/175/54 124/173/56
f 129/174/58 128/171/57 127/148/58
f 81/88/25 124/173/56 125/175/54
