# Blender 4.2.0
# www.blender.org
o Cylinder.004
v -0.318083 0.096794 -0.307522
v -0.321263 0.096794 -0.323509
v -0.330319 0.096794 -0.337063
v -0.343872 0.096794 -0.346119
v -0.359859 0.096794 -0.349299
v -0.375847 0.096794 -0.346119
v -0.389400 0.096794 -0.337063
v -0.398456 0.096794 -0.323509
v -0.401636 0.096794 -0.307522
v -0.398456 0.096794 -0.291535
v -0.389400 0.096794 -0.277982
v -0.375847 0.096794 -0.268925
v -0.359859 0.096794 -0.265746
v -0.343872 0.096794 -0.268925
v -0.330319 0.096794 -0.277982
v -0.321263 0.096794 -0.291535
v -0.321263 -0.096794 -0.323509
v -0.318083 -0.096794 -0.307522
v -0.330319 -0.096794 -0.337063
v -0.343872 -0.096794 -0.346119
v -0.359859 -0.096794 -0.349299
v -0.375847 -0.096794 -0.346119
v -0.389400 -0.096794 -0.337063
v -0.398456 -0.096794 -0.323509
v -0.401636 -0.096794 -0.307522
v -0.398456 -0.096794 -0.291535
v -0.389400 -0.096794 -0.277982
v -0.375847 -0.096794 -0.268925
v -0.359859 -0.096794 -0.265746
v -0.343872 -0.096794 -0.268925
v -0.330319 -0.096794 -0.277982
v -0.321263 -0.096794 -0.291535
v -0.328152 0.111008 -0.307522
v -0.330566 0.111008 -0.319656
v -0.337439 0.111008 -0.329943
v -0.347726 0.111008 -0.336816
v -0.359859 0.111008 -0.339230
v -0.371993 0.111008 -0.336816
v -0.382280 0.111008 -0.329943
v -0.389153 0.111008 -0.319656
v -0.391567 0.111008 -0.307522
v -0.389153 0.111008 -0.295388
v -0.382280 0.111008 -0.285101
v -0.371993 0.111008 -0.278228
v -0.359859 0.111008 -0.275815
v -0.347726 0.111008 -0.278228
v -0.337439 0.111008 -0.285101
v -0.330566 0.111008 -0.295388
v -0.330566 -0.111009 -0.319656
v -0.328152 -0.111009 -0.307522
v -0.337439 -0.111009 -0.329943
v -0.347726 -0.111009 -0.336816
v -0.359859 -0.111009 -0.339230
v -0.371993 -0.111009 -0.336816
v -0.382280 -0.111009 -0.329943
v -0.389153 -0.111009 -0.319656
v -0.391567 -0.111009 -0.307522
v -0.389153 -0.111009 -0.295388
v -0.382280 -0.111009 -0.285101
v -0.371993 -0.111009 -0.278228
v -0.359859 -0.111009 -0.275815
v -0.347726 -0.111009 -0.278228
v -0.337439 -0.111009 -0.285101
v -0.330566 -0.111009 -0.295388
v -0.029645 0.014440 0.030963
v -0.398059 0.095775 -0.303591
v 0.029920 0.014440 -0.016876
v -0.321661 0.095775 -0.303591
v -0.398059 -0.095775 -0.303591
v -0.029645 -0.014440 0.030963
v -0.321661 -0.095775 -0.303591
v 0.029920 -0.014440 -0.016876
v -0.321661 -0.076660 -0.303591
v 0.029920 -0.004675 -0.016876
v -0.321661 0.076660 -0.303591
v 0.029920 0.004675 -0.016876
v -0.029645 -0.004675 0.030963
v -0.398059 -0.076660 -0.303591
v -0.029645 0.004675 0.030963
v -0.398059 0.076660 -0.303591
vn 0.7202 0.6937 -0.0000
vn 0.6869 0.6636 -0.2963
vn 0.5677 0.5574 -0.6058
vn 0.3126 0.3520 -0.8822
vn -0.0000 0.2238 -0.9746
vn -0.3126 0.3520 -0.8822
vn -0.5677 0.5574 -0.6058
vn -0.6869 0.6636 -0.2963
vn -0.7202 0.6937 -0.0000
vn -0.6869 0.6636 0.2963
vn -0.5677 0.5574 0.6058
vn -0.3126 0.3520 0.8822
vn -0.0000 0.2238 0.9746
vn 0.3126 0.3520 0.8822
vn 0.5677 0.5574 0.6058
vn 0.6869 0.6636 0.2963
vn 0.6869 -0.6636 -0.2963
vn 0.7202 -0.6938 -0.0000
vn 0.5677 -0.5574 -0.6058
vn 0.3126 -0.3520 -0.8822
vn -0.0000 -0.2238 -0.9746
vn -0.3126 -0.3520 -0.8822
vn -0.5677 -0.5574 -0.6058
vn -0.6869 -0.6636 -0.2963
vn -0.7202 -0.6938 -0.0000
vn -0.6869 -0.6636 0.2963
vn -0.5677 -0.5574 0.6058
vn -0.3126 -0.3520 0.8822
vn -0.0000 -0.2238 0.9746
vn 0.3126 -0.3520 0.8822
vn 0.5677 -0.5574 0.6058
vn 0.6869 -0.6636 0.2963
vn -0.0043 0.1853 0.9827
vn -0.3756 0.3308 -0.8657
vn 0.8031 0.5926 0.0622
vn 0.2066 0.2841 -0.9363
vn -0.3756 -0.3308 -0.8657
vn -0.0043 -0.1853 0.9827
vn 0.2066 -0.2841 -0.9363
vn 0.8031 -0.5926 0.0622
vn 0.1936 0.2402 -0.9512
vn 0.7360 -0.6746 -0.0572
vn 0.1936 -0.2402 -0.9512
vn 0.7360 0.6746 -0.0572
vn -0.0074 -0.2027 0.9792
vn -0.3660 0.2907 -0.8840
vn -0.0074 0.2027 0.9792
vn -0.3660 -0.2907 -0.8841
vt 0.250000 0.010000
vt 0.010000 0.250000
vt 0.250000 0.490000
vt 0.080294 0.080294
vt 0.419706 0.080294
vt 0.419706 0.419706
vt 0.028269 0.158156
vt 0.490000 0.250000
vt 0.471731 0.158156
vt 0.028269 0.341844
vt 0.080294 0.419706
vt 0.341844 0.028269
vt 0.158156 0.471731
vt 0.341844 0.471731
vt 0.158156 0.028269
vt 0.471731 0.341844
vt 0.625000 0.416667
vt 0.375000 0.833333
vt 0.625000 0.833333
vt 0.375000 0.416667
vt 0.625000 0.500000
vt 0.375000 0.500000
vt 0.375000 0.750000
vt 0.291667 0.750000
vt 0.291667 0.500000
vt 0.708333 0.500000
vt 0.625000 0.750000
vt 0.708333 0.750000
s 1
f 9/1/9 13/2/13 1/3/1
f 27/4/27 23/5/23 19/6/19
f 12/7/12 29/2/29 13/2/13
f 5/8/5 22/9/22 6/9/6
f 13/2/13 30/10/30 14/10/14
f 6/9/6 23/5/23 7/5/7
f 14/10/14 31/11/31 15/11/15
f 8/12/8 23/5/23 24/12/24
f 15/11/15 32/13/32 16/13/16
f 8/12/8 25/1/25 9/1/9
f 2/14/2 18/3/18 17/14/17
f 16/13/16 18/3/18 1/3/1
f 10/15/10 25/1/25 26/15/26
f 2/14/2 19/6/19 3/6/3
f 10/15/10 27/4/27 11/4/11
f 4/16/4 19/6/19 20/16/20
f 11/4/11 28/7/28 12/7/12
f 4/16/4 21/8/21 5/8/5
f 41/1/9 45/2/13 33/3/1
f 59/4/27 55/5/23 51/6/19
f 44/7/12 61/2/29 45/2/13
f 37/8/5 54/9/22 38/9/6
f 45/2/13 62/10/30 46/10/14
f 39/5/7 54/9/22 55/5/23
f 46/10/14 63/11/31 47/11/15
f 40/12/8 55/5/23 56/12/24
f 47/11/15 64/13/32 48/13/16
f 40/12/8 57/1/25 41/1/9
f 33/3/1 49/14/17 34/14/2
f 48/13/16 50/3/18 33/3/1
f 41/1/9 58/15/26 42/15/10
f 34/14/2 51/6/19 35/6/3
f 42/15/10 59/4/27 43/4/11
f 36/16/4 51/6/19 52/16/20
f 43/4/11 60/7/28 44/7/12
f 36/16/4 53/8/21 37/8/5
f 67/17/35 66/18/34 65/19/33
f 73/20/41 72/21/40 71/22/39
f 72/21/40 69/23/37 71/22/39
f 80/23/48 65/19/33 66/18/34
f 71/22/39 78/24/46 73/25/41
f 67/26/35 77/27/45 74/21/42
f 76/26/44 70/27/38 72/21/40
f 75/22/43 66/24/34 68/25/36
f 70/27/38 78/18/46 69/23/37
f 74/21/42 80/23/48 75/22/43
f 67/17/35 75/22/43 68/20/36
f 76/17/44 78/18/46 79/19/47
f 1/3/1 2/14/2 3/6/3
f 3/6/3 4/16/4 5/8/5
f 5/8/5 6/9/6 7/5/7
f 7/5/7 8/12/8 9/1/9
f 9/1/9 10/15/10 11/4/11
f 11/4/11 12/7/12 13/2/13
f 13/2/13 14/10/14 15/11/15
f 15/11/15 16/13/16 1/3/1
f 1/3/1 3/6/3 5/8/5
f 5/8/5 7/5/7 9/1/9
f 9/1/9 11/4/11 13/2/13
f 13/2/13 15/11/15 1/3/1
f 1/3/1 5/8/5 9/1/9
f 19/6/19 17/14/17 18/3/18
f 18/3/18 32/13/32 31/11/31
f 31/11/31 30/10/30 29/2/29
f 29/2/29 28/7/28 27/4/27
f 27/4/27 26/15/26 25/1/25
f 25/1/25 24/12/24 23/5/23
f 23/5/23 22/9/22 21/8/21
f 21/8/21 20/16/20 19/6/19
f 19/6/19 18/3/18 31/11/31
f 31/11/31 29/2/29 27/4/27
f 27/4/27 25/1/25 23/5/23
f 23/5/23 21/8/21 19/6/19
f 19/6/19 31/11/31 27/4/27
f 12/7/12 28/7/28 29/2/29
f 5/8/5 21/8/21 22/9/22
f 13/2/13 29/2/29 30/10/30
f 6/9/6 22/9/22 23/5/23
f 14/10/14 30/10/30 31/11/31
f 8/12/8 7/5/7 23/5/23
f 15/11/15 31/11/31 32/13/32
f 8/12/8 24/12/24 25/1/25
f 2/14/2 1/3/1 18/3/18
f 16/13/16 32/13/32 18/3/18
f 10/15/10 9/1/9 25/1/25
f 2/14/2 17/14/17 19/6/19
f 10/15/10 26/15/26 27/4/27
f 4/16/4 3/6/3 19/6/19
f 11/4/11 27/4/27 28/7/28
f 4/16/4 20/16/20 21/8/21
f 33/3/1 34/14/2 35/6/3
f 35/6/3 36/16/4 37/8/5
f 37/8/5 38/9/6 39/5/7
f 39/5/7 40/12/8 41/1/9
f 41/1/9 42/15/10 43/4/11
f 43/4/11 44/7/12 45/2/13
f 45/2/13 46/10/14 47/11/15
f 47/11/15 48/13/16 33/3/1
f 33/3/1 35/6/3 37/8/5
f 37/8/5 39/5/7 41/1/9
f 41/1/9 43/4/11 45/2/13
f 45/2/13 47/11/15 33/3/1
f 33/3/1 37/8/5 41/1/9
f 51/6/19 49/14/17 50/3/18
f 50/3/18 64/13/32 63/11/31
f 63/11/31 62/10/30 61/2/29
f 61/2/29 60/7/28 59/4/27
f 59/4/27 58/15/26 57/1/25
f 57/1/25 56/12/24 55/5/23
f 55/5/23 54/9/22 53/8/21
f 53/8/21 52/16/20 51/6/19
f 51/6/19 50/3/18 63/11/31
f 63/11/31 61/2/29 59/4/27
f 59/4/27 57/1/25 55/5/23
f 55/5/23 53/8/21 51/6/19
f 51/6/19 63/11/31 59/4/27
f 44/7/12 60/7/28 61/2/29
f 37/8/5 53/8/21 54/9/22
f 45/2/13 61/2/29 62/10/30
f 39/5/7 38/9/6 54/9/22
f 46/10/14 62/10/30 63/11/31
f 40/12/8 39/5/7 55/5/23
f 47/11/15 63/11/31 64/13/32
f 40/12/8 56/12/24 57/1/25
f 33/3/1 50/3/18 49/14/17
f 48/13/16 64/13/32 50/3/18
f 41/1/9 57/1/25 58/15/26
f 34/14/2 49/14/17 51/6/19
f 42/15/10 58/15/26 59/4/27
f 36/16/4 35/6/3 51/6/19
f 43/4/11 59/4/27 60/7/28
f 36/16/4 52/16/20 53/8/21
f 67/17/35 68/25/36 66/18/34
f 73/20/41 76/17/44 72/21/40
f 72/21/40 70/27/38 69/23/37
f 80/23/48 77/27/45 65/19/33
f 71/22/39 69/23/37 78/24/46
f 67/26/35 65/28/33 77/27/45
f 76/26/44 79/28/47 70/27/38
f 75/22/43 80/23/48 66/24/34
f 70/27/38 79/19/47 78/18/46
f 74/21/42 77/27/45 80/23/48
f 67/17/35 74/21/42 75/22/43
f 76/17/44 73/25/41 78/18/46
