# Blender 4.2.0
# www.blender.org
o Cylinder.003
v 0.041777 0.096794 0.000000
v 0.038597 0.096794 -0.015987
v 0.029540 0.096794 -0.029541
v 0.015987 0.096794 -0.038597
v -0.000000 0.096794 -0.041777
v -0.015987 0.096794 -0.038597
v -0.029540 0.096794 -0.029541
v -0.038596 0.096794 -0.015987
v -0.041777 0.096794 0.000000
v -0.038596 0.096794 0.015987
v -0.029540 0.096794 0.029541
v -0.015987 0.096794 0.038597
v -0.000000 0.096794 0.041777
v 0.015987 0.096794 0.038597
v 0.029540 0.096794 0.029541
v 0.038597 0.096794 0.015987
v 0.038597 -0.096794 -0.015987
v 0.041777 -0.096794 0.000000
v 0.029540 -0.096794 -0.029541
v 0.015987 -0.096794 -0.038597
v -0.000000 -0.096794 -0.041777
v -0.015987 -0.096794 -0.038597
v -0.029540 -0.096794 -0.029541
v -0.038596 -0.096794 -0.015987
v -0.041777 -0.096794 0.000000
v -0.038596 -0.096794 0.015987
v -0.029540 -0.096794 0.029541
v -0.015987 -0.096794 0.038597
v -0.000000 -0.096794 0.041777
v 0.015987 -0.096794 0.038597
v 0.029540 -0.096794 0.029541
v 0.038597 -0.096794 0.015987
v 0.031707 0.111009 0.000000
v 0.029294 0.111009 -0.012134
v 0.022421 0.111009 -0.022421
v 0.012134 0.111009 -0.029294
v -0.000000 0.111009 -0.031707
v -0.012134 0.111009 -0.029294
v -0.022421 0.111009 -0.022421
v -0.029294 0.111009 -0.012134
v -0.031707 0.111009 0.000000
v -0.029294 0.111009 0.012134
v -0.022421 0.111009 0.022421
v -0.012134 0.111009 0.029294
v -0.000000 0.111009 0.031707
v 0.012134 0.111009 0.029294
v 0.022421 0.111009 0.022421
v 0.029294 0.111009 0.012134
v 0.029294 -0.111009 -0.012134
v 0.031707 -0.111009 0.000000
v 0.022421 -0.111009 -0.022421
v 0.012134 -0.111009 -0.029294
v -0.000000 -0.111009 -0.031707
v -0.012134 -0.111009 -0.029294
v -0.022421 -0.111009 -0.022421
v -0.029294 -0.111009 -0.012134
v -0.031707 -0.111009 0.000000
v -0.029294 -0.111009 0.012134
v -0.022421 -0.111009 0.022421
v -0.012134 -0.111009 0.029294
v -0.000000 -0.111009 0.031707
v 0.012134 -0.111009 0.029294
v 0.022421 -0.111009 0.022421
v 0.029294 -0.111009 0.012134
v 0.402784 0.026732 -0.303488
v 0.399604 0.026732 -0.319475
v 0.390548 0.026732 -0.333028
v 0.376995 0.026732 -0.342084
v 0.361007 0.026732 -0.345264
v 0.345020 0.026732 -0.342084
v 0.331467 0.026732 -0.333028
v 0.322411 0.026732 -0.319475
v 0.319231 0.026732 -0.303488
v 0.322411 0.026732 -0.287501
v 0.331467 0.026732 -0.273947
v 0.345020 0.026732 -0.264891
v 0.361007 0.026732 -0.261711
v 0.376995 0.026732 -0.264891
v 0.390548 0.026732 -0.273947
v 0.399604 0.026732 -0.287501
v 0.399604 -0.026731 -0.319475
v 0.402784 -0.026731 -0.303488
v 0.390548 -0.026731 -0.333028
v 0.376995 -0.026731 -0.342084
v 0.361007 -0.026731 -0.345264
v 0.345020 -0.026731 -0.342084
v 0.331467 -0.026731 -0.333028
v 0.322411 -0.026731 -0.319475
v 0.319231 -0.026731 -0.303488
v 0.322411 -0.026731 -0.287501
v 0.331467 -0.026731 -0.273947
v 0.345020 -0.026731 -0.264891
v 0.361007 -0.026731 -0.261711
v 0.376995 -0.026731 -0.264891
v 0.390548 -0.026731 -0.273947
v 0.399604 -0.026731 -0.287501
v 0.392715 0.033236 -0.303488
v 0.390301 0.033236 -0.315622
v 0.383428 0.033236 -0.325908
v 0.373141 0.033236 -0.332782
v 0.361007 0.033236 -0.335195
v 0.348874 0.033236 -0.332782
v 0.338587 0.033236 -0.325908
v 0.331714 0.033236 -0.315622
v 0.329300 0.033236 -0.303488
v 0.331714 0.033236 -0.291354
v 0.338587 0.033236 -0.281067
v 0.348874 0.033236 -0.274194
v 0.361007 0.033236 -0.271780
v 0.373141 0.033236 -0.274194
v 0.383428 0.033236 -0.281067
v 0.390301 0.033236 -0.291354
v 0.390301 -0.033235 -0.315622
v 0.392715 -0.033235 -0.303488
v 0.383428 -0.033235 -0.325908
v 0.373141 -0.033235 -0.332782
v 0.361007 -0.033235 -0.335195
v 0.348874 -0.033235 -0.332782
v 0.338587 -0.033235 -0.325908
v 0.331714 -0.033235 -0.315622
v 0.329300 -0.033235 -0.303488
v 0.331714 -0.033235 -0.291354
v 0.338587 -0.033235 -0.281067
v 0.348874 -0.033235 -0.274194
v 0.361007 -0.033235 -0.271780
v 0.373141 -0.033235 -0.274194
v 0.383428 -0.033235 -0.281067
v 0.390301 -0.033235 -0.291354
v 0.332569 0.024401 -0.330859
v -0.021810 0.024401 -0.032821
v 0.383098 0.024401 -0.270778
v 0.028870 0.024401 0.027133
v 0.332569 -0.024400 -0.330859
v -0.021810 -0.024400 -0.032821
v 0.383098 -0.024400 -0.270778
v 0.028870 -0.024400 0.027133
vn 0.7202 0.6937 -0.0000
vn 0.6869 0.6636 -0.2963
vn 0.5677 0.5574 -0.6058
vn 0.3126 0.3520 -0.8822
vn -0.0000 0.2238 -0.9746
vn -0.3126 0.3520 -0.8822
vn -0.5677 0.5574 -0.6058
vn -0.6869 0.6636 -0.2963
vn -0.7202 0.6937 -0.0000
vn -0.6869 0.6636 0.2963
vn -0.5677 0.5574 0.6058
vn -0.3126 0.3520 0.8822
vn -0.0000 0.2238 0.9746
vn 0.3126 0.3520 0.8822
vn 0.5677 0.5574 0.6058
vn 0.6869 0.6636 0.2963
vn 0.6869 -0.6636 -0.2963
vn 0.7202 -0.6938 -0.0000
vn 0.5677 -0.5574 -0.6058
vn 0.3126 -0.3520 -0.8822
vn -0.0000 -0.2238 -0.9746
vn -0.3126 -0.3520 -0.8822
vn -0.5677 -0.5574 -0.6058
vn -0.6869 -0.6636 -0.2963
vn -0.7202 -0.6938 -0.0000
vn -0.6869 -0.6636 0.2963
vn -0.5677 -0.5574 0.6058
vn -0.3126 -0.3520 0.8822
vn -0.0000 -0.2238 0.9746
vn 0.3126 -0.3520 0.8822
vn 0.5677 -0.5574 0.6058
vn 0.6869 -0.6636 0.2963
vn 0.6869 0.6635 -0.2963
vn -0.0000 0.2239 -0.9746
vn -0.6869 0.6635 -0.2963
vn -0.6869 0.6635 0.2963
vn -0.0000 0.2239 0.9746
vn 0.6869 0.6635 0.2963
vn 0.6869 -0.6635 -0.2963
vn 0.7202 -0.6937 -0.0000
vn -0.0000 -0.2239 -0.9746
vn -0.6869 -0.6635 -0.2963
vn -0.7202 -0.6937 -0.0000
vn -0.6869 -0.6635 0.2963
vn -0.0000 -0.2239 0.9746
vn 0.6869 -0.6635 0.2963
vn 0.0144 0.1932 -0.9810
vn -0.7573 0.6422 -0.1188
vn 0.7571 0.6422 0.1203
vn -0.0142 0.1933 0.9810
vn 0.0144 -0.1932 -0.9810
vn -0.7573 -0.6422 -0.1188
vn 0.7571 -0.6422 0.1203
vn -0.0143 -0.1933 0.9810
vt 0.250000 0.010000
vt 0.010000 0.250000
vt 0.250000 0.490000
vt 0.080294 0.080294
vt 0.419706 0.080294
vt 0.419706 0.419706
vt 0.028269 0.158156
vt 0.490000 0.250000
vt 0.471731 0.158156
vt 0.028269 0.341844
vt 0.080294 0.419706
vt 0.341844 0.028269
vt 0.158156 0.471731
vt 0.341844 0.471731
vt 0.158156 0.028269
vt 0.471731 0.341844
vt 0.625000 0.000000
vt 0.375000 0.250000
vt 0.375000 0.000000
vt 0.625000 0.250000
vt 0.375000 0.500000
vt 0.625000 0.750000
vt 0.375000 0.750000
vt 0.375000 1.000000
vt 0.125000 0.750000
vt 0.125000 0.500000
vt 0.875000 0.500000
vt 0.625000 0.500000
vt 0.625000 1.000000
vt 0.875000 0.750000
s 1
f 9/1/9 13/2/13 1/3/1
f 27/4/27 23/5/23 19/6/19
f 12/7/12 29/2/29 13/2/13
f 5/8/5 22/9/22 6/9/6
f 13/2/13 30/10/30 14/10/14
f 6/9/6 23/5/23 7/5/7
f 14/10/14 31/11/31 15/11/15
f 8/12/8 23/5/23 24/12/24
f 15/11/15 32/13/32 16/13/16
f 8/12/8 25/1/25 9/1/9
f 1/3/1 17/14/17 2/14/2
f 16/13/16 18/3/18 1/3/1
f 10/15/10 25/1/25 26/15/26
f 2/14/2 19/6/19 3/6/3
f 10/15/10 27/4/27 11/4/11
f 4/16/4 19/6/19 20/16/20
f 12/7/12 27/4/27 28/7/28
f 4/16/4 21/8/21 5/8/5
f 41/1/9 45/2/13 33/3/1
f 59/4/27 55/5/23 51/6/19
f 44/7/12 61/2/29 45/2/13
f 37/8/5 54/9/22 38/9/6
f 45/2/13 62/10/30 46/10/14
f 38/9/6 55/5/23 39/5/7
f 46/10/14 63/11/31 47/11/15
f 40/12/8 55/5/23 56/12/24
f 47/11/15 64/13/32 48/13/16
f 40/12/8 57/1/25 41/1/9
f 33/3/1 49/14/17 34/14/2
f 48/13/16 50/3/18 33/3/1
f 42/15/10 57/1/25 58/15/26
f 34/14/2 51/6/19 35/6/3
f 42/15/10 59/4/27 43/4/11
f 36/16/4 51/6/19 52/16/20
f 43/4/11 60/7/28 44/7/12
f 36/16/4 53/8/21 37/8/5
f 73/1/9 77/2/37 65/3/1
f 91/4/27 87/5/23 83/6/19
f 76/7/12 93/2/45 77/2/37
f 69/8/34 86/9/22 70/9/6
f 77/2/37 94/10/30 78/10/14
f 70/9/6 87/5/23 71/5/7
f 78/10/14 95/11/31 79/11/15
f 71/5/7 88/12/42 72/12/35
f 79/11/15 96/13/46 80/13/38
f 72/12/35 89/1/43 73/1/9
f 65/3/1 81/14/39 66/14/33
f 80/13/38 82/3/40 65/3/1
f 73/1/9 90/15/44 74/15/36
f 66/14/33 83/6/19 67/6/3
f 74/15/36 91/4/27 75/4/11
f 67/6/3 84/16/20 68/16/4
f 75/4/11 92/7/28 76/7/12
f 68/16/4 85/8/41 69/8/34
f 105/1/9 109/2/37 97/3/1
f 123/4/27 119/5/23 115/6/19
f 108/7/12 125/2/45 109/2/37
f 101/8/34 118/9/22 102/9/6
f 109/2/37 126/10/30 110/10/14
f 102/9/6 119/5/23 103/5/7
f 110/10/14 127/11/31 111/11/15
f 104/12/8 119/5/23 120/12/24
f 111/11/15 128/13/32 112/13/16
f 104/12/8 121/1/25 105/1/9
f 97/3/1 113/14/17 98/14/2
f 97/3/1 128/13/32 114/3/18
f 105/1/9 122/15/26 106/15/10
f 98/14/2 115/6/19 99/6/3
f 107/4/11 122/15/26 123/4/27
f 100/16/4 115/6/19 116/16/20
f 107/4/11 124/7/28 108/7/12
f 101/8/34 116/16/20 117/8/21
f 130/17/48 131/18/49 129/19/47
f 132/20/50 135/21/53 131/18/49
f 135/21/53 134/22/52 133/23/51
f 134/22/52 129/24/47 133/23/51
f 135/21/53 129/25/47 131/26/49
f 132/27/50 134/22/52 136/28/54
f 1/3/1 2/14/2 3/6/3
f 3/6/3 4/16/4 5/8/5
f 5/8/5 6/9/6 7/5/7
f 7/5/7 8/12/8 9/1/9
f 9/1/9 10/15/10 11/4/11
f 11/4/11 12/7/12 13/2/13
f 13/2/13 14/10/14 15/11/15
f 15/11/15 16/13/16 1/3/1
f 1/3/1 3/6/3 5/8/5
f 5/8/5 7/5/7 9/1/9
f 9/1/9 11/4/11 13/2/13
f 13/2/13 15/11/15 1/3/1
f 1/3/1 5/8/5 9/1/9
f 19/6/19 17/14/17 18/3/18
f 18/3/18 32/13/32 31/11/31
f 31/11/31 30/10/30 29/2/29
f 29/2/29 28/7/28 27/4/27
f 27/4/27 26/15/26 25/1/25
f 25/1/25 24/12/24 23/5/23
f 23/5/23 22/9/22 21/8/21
f 21/8/21 20/16/20 19/6/19
f 19/6/19 18/3/18 31/11/31
f 31/11/31 29/2/29 27/4/27
f 27/4/27 25/1/25 23/5/23
f 23/5/23 21/8/21 19/6/19
f 19/6/19 31/11/31 27/4/27
f 12/7/12 28/7/28 29/2/29
f 5/8/5 21/8/21 22/9/22
f 13/2/13 29/2/29 30/10/30
f 6/9/6 22/9/22 23/5/23
f 14/10/14 30/10/30 31/11/31
f 8/12/8 7/5/7 23/5/23
f 15/11/15 31/11/31 32/13/32
f 8/12/8 24/12/24 25/1/25
f 1/3/1 18/3/18 17/14/17
f 16/13/16 32/13/32 18/3/18
f 10/15/10 9/1/9 25/1/25
f 2/14/2 17/14/17 19/6/19
f 10/15/10 26/15/26 27/4/27
f 4/16/4 3/6/3 19/6/19
f 12/7/12 11/4/11 27/4/27
f 4/16/4 20/16/20 21/8/21
f 33/3/1 34/14/2 35/6/3
f 35/6/3 36/16/4 37/8/5
f 37/8/5 38/9/6 39/5/7
f 39/5/7 40/12/8 41/1/9
f 41/1/9 42/15/10 43/4/11
f 43/4/11 44/7/12 45/2/13
f 45/2/13 46/10/14 47/11/15
f 47/11/15 48/13/16 33/3/1
f 33/3/1 35/6/3 37/8/5
f 37/8/5 39/5/7 41/1/9
f 41/1/9 43/4/11 45/2/13
f 45/2/13 47/11/15 33/3/1
f 33/3/1 37/8/5 41/1/9
f 51/6/19 49/14/17 50/3/18
f 50/3/18 64/13/32 63/11/31
f 63/11/31 62/10/30 61/2/29
f 61/2/29 60/7/28 59/4/27
f 59/4/27 58/15/26 57/1/25
f 57/1/25 56/12/24 55/5/23
f 55/5/23 54/9/22 53/8/21
f 53/8/21 52/16/20 51/6/19
f 51/6/19 50/3/18 63/11/31
f 63/11/31 61/2/29 59/4/27
f 59/4/27 57/1/25 55/5/23
f 55/5/23 53/8/21 51/6/19
f 51/6/19 63/11/31 59/4/27
f 44/7/12 60/7/28 61/2/29
f 37/8/5 53/8/21 54/9/22
f 45/2/13 61/2/29 62/10/30
f 38/9/6 54/9/22 55/5/23
f 46/10/14 62/10/30 63/11/31
f 40/12/8 39/5/7 55/5/23
f 47/11/15 63/11/31 64/13/32
f 40/12/8 56/12/24 57/1/25
f 33/3/1 50/3/18 49/14/17
f 48/13/16 64/13/32 50/3/18
f 42/15/10 41/1/9 57/1/25
f 34/14/2 49/14/17 51/6/19
f 42/15/10 58/15/26 59/4/27
f 36/16/4 35/6/3 51/6/19
f 43/4/11 59/4/27 60/7/28
f 36/16/4 52/16/20 53/8/21
f 65/3/1 66/14/33 67/6/3
f 67/6/3 68/16/4 69/8/34
f 69/8/34 70/9/6 71/5/7
f 71/5/7 72/12/35 73/1/9
f 73/1/9 74/15/36 75/4/11
f 75/4/11 76/7/12 77/2/37
f 77/2/37 78/10/14 79/11/15
f 79/11/15 80/13/38 65/3/1
f 65/3/1 67/6/3 69/8/34
f 69/8/34 71/5/7 73/1/9
f 73/1/9 75/4/11 77/2/37
f 77/2/37 79/11/15 65/3/1
f 65/3/1 69/8/34 73/1/9
f 83/6/19 81/14/39 82/3/40
f 82/3/40 96/13/46 95/11/31
f 95/11/31 94/10/30 93/2/45
f 93/2/45 92/7/28 91/4/27
f 91/4/27 90/15/44 89/1/43
f 89/1/43 88/12/42 87/5/23
f 87/5/23 86/9/22 85/8/41
f 85/8/41 84/16/20 83/6/19
f 83/6/19 82/3/40 95/11/31
f 95/11/31 93/2/45 91/4/27
f 91/4/27 89/1/43 87/5/23
f 87/5/23 85/8/41 83/6/19
f 83/6/19 95/11/31 91/4/27
f 76/7/12 92/7/28 93/2/45
f 69/8/34 85/8/41 86/9/22
f 77/2/37 93/2/45 94/10/30
f 70/9/6 86/9/22 87/5/23
f 78/10/14 94/10/30 95/11/31
f 71/5/7 87/5/23 88/12/42
f 79/11/15 95/11/31 96/13/46
f 72/12/35 88/12/42 89/1/43
f 65/3/1 82/3/40 81/14/39
f 80/13/38 96/13/46 82/3/40
f 73/1/9 89/1/43 90/15/44
f 66/14/33 81/14/39 83/6/19
f 74/15/36 90/15/44 91/4/27
f 67/6/3 83/6/19 84/16/20
f 75/4/11 91/4/27 92/7/28
f 68/16/4 84/16/20 85/8/41
f 97/3/1 98/14/2 99/6/3
f 99/6/3 100/16/4 101/8/34
f 101/8/34 102/9/6 103/5/7
f 103/5/7 104/12/8 105/1/9
f 105/1/9 106/15/10 107/4/11
f 107/4/11 108/7/12 109/2/37
f 109/2/37 110/10/14 111/11/15
f 111/11/15 112/13/16 97/3/1
f 97/3/1 99/6/3 101/8/34
f 101/8/34 103/5/7 105/1/9
f 105/1/9 107/4/11 109/2/37
f 109/2/37 111/11/15 97/3/1
f 97/3/1 101/8/34 105/1/9
f 115/6/19 113/14/17 114/3/18
f 114/3/18 128/13/32 127/11/31
f 127/11/31 126/10/30 125/2/45
f 125/2/45 124/7/28 123/4/27
f 123/4/27 122/15/26 121/1/25
f 121/1/25 120/12/24 119/5/23
f 119/5/23 118/9/22 117/8/21
f 117/8/21 116/16/20 115/6/19
f 115/6/19 114/3/18 127/11/31
f 127/11/31 125/2/45 123/4/27
f 123/4/27 121/1/25 119/5/23
f 119/5/23 117/8/21 115/6/19
f 115/6/19 127/11/31 123/4/27
f 108/7/12 124/7/28 125/2/45
f 101/8/34 117/8/21 118/9/22
f 109/2/37 125/2/45 126/10/30
f 102/9/6 118/9/22 119/5/23
f 110/10/14 126/10/30 127/11/31
f 104/12/8 103/5/7 119/5/23
f 111/11/15 127/11/31 128/13/32
f 104/12/8 120/12/24 121/1/25
f 97/3/1 114/3/18 113/14/17
f 97/3/1 112/13/16 128/13/32
f 105/1/9 121/1/25 122/15/26
f 98/14/2 113/14/17 115/6/19
f 107/4/11 106/15/10 122/15/26
f 100/16/4 99/6/3 115/6/19
f 107/4/11 123/4/27 124/7/28
f 101/8/34 100/16/4 116/16/20
f 130/17/48 132/20/50 131/18/49
f 132/20/50 136/28/54 135/21/53
f 135/21/53 136/28/54 134/22/52
f 134/22/52 130/29/48 129/24/47
f 135/21/53 133/23/51 129/25/47
f 132/27/50 130/30/48 134/22/52
