# Blender 4.2.0
# www.blender.org
o base.002
v 2.007130 -40.363949 94.714050
v -2.007122 -30.875965 98.302307
v 2.007130 -30.875963 98.302315
v -2.007122 -40.363949 94.714050
v -2.007126 -35.213097 -96.747292
v 2.007122 -35.213097 -96.747284
v -2.007122 -25.281277 -99.804085
v 2.007126 -25.281277 -99.804077
v -2.007130 35.213150 -96.747269
v 2.007118 35.213150 -96.747269
v -2.007126 44.786240 -92.704872
v 2.007122 44.786240 -92.704865
v -2.007130 89.162781 -51.478149
v 2.007116 89.162781 -51.478146
v -2.007132 93.897789 -42.228020
v 2.007116 93.897789 -42.228020
v -2.007132 101.392151 17.878191
v 2.007118 101.392151 17.878195
v -2.007129 99.073517 28.007801
v 2.007114 99.073517 28.007797
v -2.007130 66.179016 78.869110
v 2.007118 66.179016 78.869118
v -2.007126 57.891651 85.138451
v 2.007122 57.891655 85.138451
v -2.007122 -0.000019 102.956299
v 2.007130 -0.000019 102.956306
v -2.007122 -10.378353 102.431870
v 2.007130 -10.378353 102.431877
v -2.007113 -89.162727 -51.478191
v 2.007135 -89.162727 -51.478188
v -2.007114 -83.519402 -60.203888
v 2.007132 -83.519402 -60.203884
v -2.007113 -101.392166 17.878105
v 2.007136 -101.392166 17.878109
v -2.007109 -102.677895 7.566382
v 2.007134 -102.677895 7.566380
v -2.007114 -66.179100 78.869049
v 2.007133 -66.179100 78.869049
v -2.007118 -73.792267 71.796249
v 2.007130 -73.792267 71.796242
v -2.007118 -58.158836 84.956161
v 2.007126 -58.158836 84.956161
v 2.007135 -80.398567 64.312286
v -2.007113 -80.398567 64.312286
v 2.007139 -86.839882 55.457230
v -2.007109 -86.839882 55.457230
v 2.007130 -91.801582 46.609741
v -2.007116 -91.801582 46.609741
v 2.007133 -96.128922 36.867729
v -2.007113 -96.128922 36.867729
v 2.007132 -99.161011 27.696442
v -2.007113 -99.161011 27.696444
v 2.007132 -102.928017 -2.413120
v -2.007112 -102.928017 -2.413118
v 2.007134 -102.170433 -13.336883
v -2.007110 -102.170433 -13.336880
v 2.007133 -100.284256 -23.303776
v -2.007115 -100.284256 -23.303780
v 2.007132 -97.337151 -33.548149
v -2.007113 -97.337151 -33.548145
v 2.007126 -93.764664 -42.522755
v -2.007118 -93.764664 -42.522751
v 2.007130 -77.296310 -68.009392
v -2.007118 -77.296310 -68.009384
v 2.007130 -69.694313 -75.890518
v -2.007118 -69.694313 -75.890518
v 2.007118 29.960491 98.500603
v -2.007133 39.535172 95.150612
v 2.007118 39.535172 95.150620
v -2.007122 29.960491 98.500610
v 2.007122 19.615067 101.070526
v -2.007122 19.615067 101.070518
v 2.007122 10.056583 102.463959
v -2.007130 10.056583 102.463959
v 2.007130 -20.249672 100.945282
v -2.007118 -20.249672 100.945282
v 2.007114 86.266037 56.197598
v -2.007135 91.447334 47.476875
v 2.007113 91.447334 47.476875
v -2.007132 86.266037 56.197598
v 2.007114 79.992882 64.816193
v -2.007132 79.992882 64.816193
v 2.007114 73.566360 72.027710
v -2.007126 73.566360 72.027710
v 2.007118 49.374222 90.344810
v -2.007126 49.374222 90.344810
v 2.007116 102.206741 -12.400886
v -2.007140 100.570282 -22.411819
v 2.007110 100.570282 -22.411825
v -2.007133 102.206741 -12.400888
v 2.007112 102.941147 -1.766355
v -2.007132 102.941147 -1.766353
v 2.007109 102.653610 7.888884
v -2.007140 102.653610 7.888880
v 2.007111 95.895378 37.471004
v -2.007132 95.895378 37.471008
v 2.007114 70.323769 -75.196869
v -2.007133 62.635262 -81.813782
v 2.007114 62.635265 -81.813782
v -2.007133 70.323769 -75.196861
v 2.007114 77.722099 -67.522415
v -2.007133 77.722099 -67.522408
v 2.007111 83.708099 -59.941246
v -2.007133 83.708099 -59.941246
v 2.007114 97.546021 -32.935925
v -2.007133 97.546021 -32.935925
v 2.007122 5.535538 -102.807388
v -2.007130 -4.607475 -102.934158
v 2.007122 -4.607475 -102.934158
v -2.007126 5.535538 -102.807381
v 2.007122 16.136028 -101.683968
v -2.007130 16.136028 -101.683960
v 2.007114 25.594650 -99.724182
v -2.007126 25.594650 -99.724190
v 2.007118 53.553795 -87.931747
v -2.007130 53.553795 -87.931747
v 2.007122 -61.842834 -82.313202
v -2.007118 -61.842834 -82.313202
v 2.007122 -53.000267 -88.266479
v -2.007126 -53.000267 -88.266479
v 2.007126 -44.494820 -92.845093
v -2.007122 -44.494820 -92.845093
v 2.007114 -15.496842 -101.783340
v -2.007126 -15.496841 -101.783340
v 2.007130 -49.940922 90.032791
v -2.007114 -49.940922 90.032791
vn -0.0000 0.3969 -0.9179
vn -0.0000 0.2981 -0.9545
vn -0.0000 0.3413 0.9400
vn -0.0000 0.2465 0.9691
vn -0.0000 -0.3428 0.9394
vn -0.0000 -0.4341 0.9009
vn -0.0000 -0.8664 0.4993
vn -0.0000 -0.9116 0.4111
vn -0.0000 -0.9847 -0.1744
vn -0.0000 -0.9626 -0.2711
vn -0.0000 -0.6422 -0.7665
vn -0.0000 -0.5631 -0.8264
vn -0.0000 0.0008 -1.0000
vn -0.0000 0.0998 -0.9950
vn -0.0000 0.8656 0.5007
vn -0.0000 0.8118 0.5839
vn -0.0000 0.9849 -0.1729
vn -0.0000 0.9972 -0.0745
vn -0.0000 0.6434 -0.7655
vn -0.0000 0.7160 -0.6981
vn -0.0000 0.5657 -0.8246
vn -0.0000 0.7801 -0.6257
vn -0.0000 0.8419 -0.5396
vn -0.0000 0.8940 -0.4480
vn -0.0000 0.9328 -0.3604
vn -0.0000 0.9634 -0.2681
vn -0.0000 0.9998 0.0221
vn -0.0000 0.9918 0.1278
vn -0.0000 0.9728 0.2315
vn -0.0000 0.9462 0.3235
vn -0.0000 0.9103 0.4139
vn -0.0000 0.7517 0.6596
vn -0.0000 0.6776 0.7354
vn -0.0000 -0.2860 -0.9582
vn -0.0000 -0.3852 -0.9228
vn -0.0000 -0.1929 -0.9812
vn -0.0000 -0.0967 -0.9953
vn -0.0000 0.1954 -0.9807
vn -0.0000 -0.8350 -0.5502
vn -0.0000 -0.8883 -0.4593
vn -0.0000 -0.7785 -0.6277
vn -0.0000 -0.7138 -0.7003
vn -0.0000 -0.4807 -0.8769
vn -0.0000 -0.9933 0.1152
vn -0.0000 -0.9757 0.2191
vn -0.0000 -0.9998 0.0196
vn -0.0000 -0.9970 -0.0776
vn -0.0000 -0.9319 -0.3627
vn -0.0000 -0.6869 0.7268
vn -0.0000 -0.6066 0.7950
vn -0.0000 -0.7533 0.6577
vn -0.0000 -0.8136 0.5814
vn -0.0000 -0.9470 0.3212
vn -0.0000 -0.0590 0.9983
vn -0.0000 0.0464 0.9989
vn -0.0000 -0.1543 0.9880
vn -0.0000 -0.2496 0.9684
vn -0.0000 -0.5190 0.8548
vn -0.0000 0.5965 0.8026
vn -0.0000 0.5169 0.8561
vn -0.0000 0.4313 0.9022
vn -0.0000 0.1519 0.9884
vn -0.0000 0.4829 -0.8757
vt 0.000481 0.999750
vt 0.999878 0.000211
vt 0.999877 0.999758
vt 0.000482 0.000203
s 1
f 1/1/1 2/2/2 3/3/2
f 2/2/2 1/1/1 4/4/1
f 5/1/3 6/4/3 7/3/4
f 8/2/4 7/3/4 6/4/3
f 9/1/5 10/4/5 11/3/6
f 12/2/6 11/3/6 10/4/5
f 13/2/7 14/3/7 15/4/8
f 16/1/8 15/4/8 14/3/7
f 17/2/9 18/3/9 19/4/10
f 20/1/10 19/4/10 18/3/9
f 21/2/11 22/3/11 23/4/12
f 24/1/12 23/4/12 22/3/11
f 25/2/13 26/3/13 27/4/14
f 28/1/14 27/4/14 26/3/13
f 29/1/15 30/4/15 31/3/16
f 32/2/16 31/3/16 30/4/15
f 33/1/17 34/4/17 35/3/18
f 36/2/18 35/3/18 34/4/17
f 37/1/19 38/4/19 39/3/20
f 40/2/20 39/3/20 38/4/19
f 38/1/19 41/2/21 42/3/21
f 41/2/21 38/1/19 37/4/19
f 43/2/22 39/1/20 40/4/20
f 39/1/20 43/2/22 44/3/22
f 45/2/23 44/1/22 43/4/22
f 44/1/22 45/2/23 46/3/23
f 47/2/24 46/1/23 45/4/23
f 46/1/23 47/2/24 48/3/24
f 49/2/25 48/1/24 47/4/24
f 48/1/24 49/2/25 50/3/25
f 51/2/26 50/1/25 49/4/25
f 50/1/25 51/2/26 52/3/26
f 34/2/17 52/1/26 51/4/26
f 52/1/26 34/2/17 33/3/17
f 53/2/27 35/1/18 36/4/18
f 35/1/18 53/2/27 54/3/27
f 55/2/28 54/1/27 53/4/27
f 54/1/27 55/2/28 56/3/28
f 57/2/29 56/1/28 55/4/28
f 56/1/28 57/2/29 58/3/29
f 59/2/30 58/1/29 57/4/29
f 58/1/29 59/2/30 60/3/30
f 61/2/31 60/1/30 59/4/30
f 60/1/30 61/2/31 62/3/31
f 30/2/15 62/1/31 61/4/31
f 62/1/31 30/2/15 29/3/15
f 63/2/32 31/1/16 32/4/16
f 31/1/16 63/2/32 64/3/32
f 65/2/33 64/1/32 63/4/32
f 64/1/32 65/2/33 66/3/33
f 67/1/34 68/2/35 69/3/35
f 68/2/35 67/1/34 70/4/34
f 71/1/36 70/2/34 67/3/34
f 70/2/34 71/1/36 72/4/36
f 73/1/37 72/2/36 71/3/36
f 72/2/36 73/1/37 74/4/37
f 26/1/13 74/2/37 73/3/37
f 74/2/37 26/1/13 25/4/13
f 75/1/38 27/2/14 28/3/14
f 27/2/14 75/1/38 76/4/38
f 3/1/2 76/2/38 75/3/38
f 76/2/38 3/1/2 2/4/2
f 77/1/39 78/2/40 79/3/40
f 78/2/40 77/1/39 80/4/39
f 81/1/41 80/2/39 77/3/39
f 80/2/39 81/1/41 82/4/41
f 83/1/42 82/2/41 81/3/41
f 82/2/41 83/1/42 84/4/42
f 22/1/11 84/2/42 83/3/42
f 84/2/42 22/1/11 21/4/11
f 85/1/43 23/2/12 24/3/12
f 23/2/12 85/1/43 86/4/43
f 69/1/35 86/2/43 85/3/43
f 86/2/43 69/1/35 68/4/35
f 87/1/44 88/2/45 89/3/45
f 88/2/45 87/1/44 90/4/44
f 91/1/46 90/2/44 87/3/44
f 90/2/44 91/1/46 92/4/46
f 93/1/47 92/2/46 91/3/46
f 92/2/46 93/1/47 94/4/47
f 18/1/9 94/2/47 93/3/47
f 94/2/47 18/1/9 17/4/9
f 95/1/48 19/2/10 20/3/10
f 19/2/10 95/1/48 96/4/48
f 79/1/40 96/2/48 95/3/48
f 96/2/48 79/1/40 78/4/40
f 97/1/49 98/2/50 99/3/50
f 98/2/50 97/1/49 100/4/49
f 101/1/51 100/2/49 97/3/49
f 100/2/49 101/1/51 102/4/51
f 103/1/52 102/2/51 101/3/51
f 102/2/51 103/1/52 104/4/52
f 14/1/7 104/2/52 103/3/52
f 104/2/52 14/1/7 13/4/7
f 105/1/53 15/2/8 16/3/8
f 15/2/8 105/1/53 106/4/53
f 89/1/45 106/2/53 105/3/53
f 106/2/53 89/1/45 88/4/45
f 107/2/54 108/1/55 109/4/55
f 108/1/55 107/2/54 110/3/54
f 111/2/56 110/1/54 107/4/54
f 110/1/54 111/2/56 112/3/56
f 113/2/57 112/1/56 111/4/56
f 112/1/56 113/2/57 114/3/57
f 10/2/5 114/1/57 113/4/57
f 114/1/57 10/2/5 9/3/5
f 115/2/58 11/1/6 12/4/6
f 11/1/6 115/2/58 116/3/58
f 99/2/50 116/1/58 115/4/58
f 116/1/58 99/2/50 98/3/50
f 117/2/59 66/1/33 65/4/33
f 66/1/33 117/2/59 118/3/59
f 119/2/60 118/1/59 117/4/59
f 118/1/59 119/2/60 120/3/60
f 121/2/61 120/1/60 119/4/60
f 120/1/60 121/2/61 122/3/61
f 6/2/3 122/1/61 121/4/61
f 122/1/61 6/2/3 5/3/3
f 123/2/62 7/1/4 8/4/4
f 7/1/4 123/2/62 124/3/62
f 109/2/55 124/1/62 123/4/62
f 124/1/62 109/2/55 108/3/55
f 125/1/63 4/2/1 1/3/1
f 4/2/1 125/1/63 126/4/63
f 42/1/21 126/2/63 125/3/63
f 126/2/63 42/1/21 41/4/21
