# Blender 4.3.0
# www.blender.org
o Vulture_droid.010
v -0.102330 0.163104 -0.099176
v -0.102330 -0.163104 0.115200
v 3.843732 0.163104 0.109141
v 3.899720 0.163104 0.003676
v 3.844752 -0.163104 -0.092036
v 3.899720 -0.163104 0.012348
v -0.102330 0.163104 0.115200
v 3.848704 0.065242 0.100646
v 3.899720 0.065242 0.012348
v 3.848493 0.065242 -0.088069
v -0.102330 -0.163104 -0.099176
v 3.848704 -0.071766 -0.084622
v 3.899720 -0.071766 0.003676
v 3.852521 -0.071766 0.099821
v 3.838712 -0.163104 0.108739
v 3.838712 0.163104 -0.092715
v 3.487969 0.065242 0.115200
v 3.487969 0.065242 -0.099176
v 3.487969 -0.071766 0.115200
v 3.487969 -0.071766 -0.099176
v 0.101039 -0.466740 0.018800
v 0.091453 -0.466114 -0.048243
v -0.032534 -0.466038 -0.097695
v -0.088347 -0.466094 -0.053671
v -0.102764 -0.466187 0.015954
v -0.069026 -0.466273 0.078522
v -0.002993 -0.466312 0.104729
v 0.103367 0.460670 0.019137
v 0.088326 0.461073 -0.053676
v 0.032514 0.461020 -0.097685
v -0.038478 0.463000 -0.095243
v -0.091446 0.461093 -0.048223
v -0.101655 0.461184 0.022000
v -0.064378 0.461259 0.082379
v 0.003006 0.461282 0.104714
v 0.038394 -0.472184 -0.094524
v 0.067472 -0.465763 0.081321
v 0.065935 0.461745 0.079561
vn 0.0033 -0.0341 0.9994
vn 0.0100 0.0982 0.9951
vn -0.0371 0.0905 0.9952
vn 0.0028 0.0337 -0.9994
vn -0.0000 0.0010 -1.0000
vn 0.0260 -0.0273 -0.9993
vn -0.0000 -0.0010 1.0000
vn -0.0000 1.0000 -0.0000
vn 0.0457 -0.9987 0.0227
vn 0.0219 -0.9992 0.0329
vn 0.0016 -1.0000 -0.0053
vn 0.1386 -0.9899 -0.0291
vn -0.0562 -0.9981 -0.0256
vn -0.0812 -0.9912 -0.1043
vn -0.0367 -0.9993 0.0073
vn -0.0196 -0.9996 0.0220
vn 0.0016 -0.9996 0.0298
vn 0.0069 1.0000 0.0030
vn 0.0187 0.9998 -0.0029
vn -0.0002 1.0000 -0.0028
vn 0.0161 0.9999 -0.0028
vn 0.0267 0.9990 -0.0350
vn -0.0426 0.9991 -0.0075
vn -0.0185 0.9998 0.0055
vn -0.0066 0.9999 0.0088
vn -0.0035 1.0000 0.0093
vn 0.8481 0.0247 0.5292
vn 0.8756 0.0217 0.4826
vn 0.8379 0.0442 0.5440
vn -0.0000 0.0010 1.0000
vn 0.0032 0.0292 0.9996
vn -0.0061 -0.0612 0.9981
vn -0.0483 -0.0442 -0.9979
vn 0.8665 0.0142 -0.4990
vn 0.8436 0.0049 -0.5369
vn 0.8653 -0.0402 -0.4996
vn 0.8483 -0.0109 0.5294
vn 0.8686 -0.0250 0.4948
vn 0.8426 -0.0753 0.5333
vn -0.0000 -1.0000 -0.0000
vn 0.8769 -0.0201 -0.4803
vn 0.8486 -0.0255 -0.5285
vn 0.8848 -0.0005 -0.4659
vn -1.0000 -0.0000 -0.0000
vn 0.0032 -0.0389 -0.9992
vn -0.0057 0.0559 -0.9984
vn -0.0000 -0.0012 -1.0000
vn -0.0389 -0.0842 0.9957
vn -0.0388 0.0789 -0.9961
vn 1.0000 -0.0000 -0.0000
vn 0.3673 -0.0610 0.9281
vn 0.3173 0.0566 0.9466
vn 0.3705 -0.0606 0.9269
vn -0.3170 -0.0612 0.9464
vn -0.3654 0.0567 0.9291
vn -0.3144 -0.0610 0.9473
vn -0.8510 -0.0620 0.5216
vn -0.8772 0.0575 0.4766
vn -0.8495 -0.0619 0.5240
vn -0.9871 -0.0633 -0.1469
vn -0.9782 0.0587 -0.1992
vn -0.9876 -0.0632 -0.1440
vn -0.6206 0.0637 -0.7816
vn -0.6599 -0.0684 -0.7483
vn -0.6619 -0.0686 -0.7464
vn -0.0301 -0.0648 -0.9974
vn 0.0403 0.0592 -0.9974
vn -0.0338 -0.0644 -0.9974
vn 0.6539 0.0629 -0.7540
vn 0.6200 -0.0685 -0.7816
vn 0.6180 -0.0689 -0.7831
vn 0.9779 -0.0635 -0.1992
vn 0.9877 0.0583 -0.1448
vn 0.9775 -0.0630 -0.2015
vn 0.8500 -0.0617 0.5231
vn 0.8782 0.0572 0.4749
vn 0.8796 0.0567 0.4722
vn 0.8832 0.0042 0.4689
vn 0.8435 0.0590 -0.5339
vn 0.8729 0.0418 0.4862
vn 0.8378 -0.0474 -0.5439
vn 0.3151 0.0564 0.9474
vn -0.3680 0.0563 0.9281
vn -0.8786 0.0571 0.4742
vn -0.9776 0.0583 -0.2020
vn -0.6183 0.0641 -0.7833
vn 0.0439 0.0588 -0.9973
vn 0.6556 0.0630 -0.7525
vn 0.9883 0.0581 -0.1413
vn 0.8485 -0.0616 0.5256
vt 0.510372 0.201836
vt 0.503082 0.210644
vt 0.501000 0.208574
vt 0.821215 0.035375
vt 0.714304 0.000028
vt 0.822098 0.032437
vt 0.365353 0.238890
vt 0.256651 0.209528
vt 0.366030 0.236107
vt 0.498496 0.210662
vt 0.496119 0.211901
vt 0.314322 0.061262
vt 0.311467 0.059428
vt 0.311913 0.056183
vt 0.151945 0.004458
vt 0.150439 0.005940
vt 0.150920 0.000656
vt 0.152147 0.002356
vt 0.146991 0.000928
vt 0.148913 0.000051
vt 0.146083 0.002835
vt 0.146612 0.004880
vt 0.148333 0.006106
vt 0.894996 0.004560
vt 0.893439 0.005986
vt 0.889199 0.002732
vt 0.891330 0.006078
vt 0.889655 0.004793
vt 0.890174 0.000859
vt 0.892124 0.000052
vt 0.894137 0.000687
vt 0.895272 0.002467
vt 0.468141 0.201093
vt 0.470130 0.196652
vt 0.470988 0.199646
vt 0.254236 0.219466
vt 0.364339 0.243064
vt 0.363615 0.246045
vt 0.472068 0.202322
vt 0.481701 0.207052
vt 0.470260 0.204495
vt 0.500132 0.212828
vt 0.712859 0.289947
vt 0.713565 0.295514
vt 0.711445 0.292902
vt 0.496324 0.214499
vt 0.250120 0.207941
vt 0.819978 0.039489
vt 0.819154 0.042231
vt 0.711359 0.009822
vt 0.424893 0.006032
vt 0.421862 0.000033
vt 0.466593 0.185796
vt 0.467095 0.197419
vt 0.835752 0.276640
vt 0.834695 0.270003
vt 0.485702 0.208649
vt 0.488339 0.202287
vt 0.472967 0.197370
vt 0.484339 0.200591
vt 0.989658 0.168690
vt 0.963972 0.155295
vt 0.990628 0.166537
vt 0.988787 0.170875
vt 0.963067 0.157468
vt 0.987920 0.173041
vt 0.962113 0.159609
vt 0.987109 0.175179
vt 0.961168 0.161730
vt 0.959160 0.165719
vt 0.986512 0.177294
vt 0.993461 0.160158
vt 0.967175 0.146710
vt 0.994518 0.158258
vt 0.965713 0.150949
vt 0.992489 0.162229
vt 0.991527 0.164357
vt 0.964822 0.153103
vt 0.247705 0.217879
vt 0.498783 0.207374
vt 0.960203 0.163789
vt 0.966459 0.148794
s 1
f 19/1/1 15/2/2 14/3/3
f 18/4/4 1/5/5 16/6/6
f 19/7/1 2/8/7 15/9/2
f 14/3/8 13/10/8 12/11/8
f 3/12/8 4/13/8 16/14/8
f 21/15/9 37/16/10 36/17/11
f 22/18/12 21/15/9 36/17/11
f 24/19/13 23/20/14 36/17/11
f 25/21/15 24/19/13 36/17/11
f 26/22/16 25/21/15 36/17/11
f 27/23/17 26/22/16 36/17/11
f 37/16/10 27/23/17 36/17/11
f 38/24/18 28/25/19 31/26/20
f 28/25/19 29/27/21 31/26/20
f 29/27/21 30/28/22 31/26/20
f 32/29/23 33/30/24 31/26/20
f 33/30/24 34/31/25 31/26/20
f 34/31/25 35/32/26 31/26/20
f 35/32/26 38/24/18 31/26/20
f 4/33/27 8/34/28 9/35/29
f 7/36/30 17/37/31 3/38/32
f 10/39/33 18/40/4 16/41/6
f 10/39/34 4/33/35 9/35/36
f 6/42/37 14/3/38 15/2/39
f 15/43/40 5/44/40 6/45/40
f 12/11/41 6/42/42 5/46/43
f 7/36/44 11/47/44 2/8/44
f 20/48/45 5/49/46 11/50/47
f 11/50/47 18/4/4 20/48/45
f 7/51/8 16/14/8 1/52/8
f 17/53/31 8/34/48 3/54/32
f 11/55/40 15/43/40 2/56/40
f 2/8/7 17/37/31 7/36/30
f 20/57/45 12/11/49 5/46/46
f 19/58/8 12/11/8 20/57/8
f 18/40/40 8/59/40 17/60/40
f 17/60/50 20/57/50 18/40/50
f 8/34/40 10/39/40 9/35/40
f 35/61/51 37/62/52 38/63/53
f 34/64/54 27/65/55 35/61/56
f 33/66/57 26/67/58 34/64/59
f 32/68/60 25/69/61 33/66/62
f 23/70/63 32/68/64 31/71/65
f 30/72/66 23/73/67 31/74/68
f 22/75/69 30/72/70 29/76/71
f 28/77/72 22/75/73 29/76/74
f 28/77/75 37/62/76 21/78/77
f 4/33/27 3/54/78 8/34/28
f 10/39/34 16/41/79 4/33/35
f 6/42/37 13/10/80 14/3/38
f 12/11/41 13/10/81 6/42/42
f 7/36/44 1/79/44 11/47/44
f 11/50/47 1/5/5 18/4/4
f 7/51/8 3/12/8 16/14/8
f 11/55/40 5/44/40 15/43/40
f 2/8/7 19/7/1 17/37/31
f 19/58/8 14/80/8 12/11/8
f 18/40/40 10/39/40 8/59/40
f 17/60/50 19/58/50 20/57/50
f 35/61/51 27/65/82 37/62/52
f 34/64/54 26/67/83 27/65/55
f 33/66/57 25/69/84 26/67/58
f 32/68/60 24/81/85 25/69/61
f 23/70/63 24/81/86 32/68/64
f 30/72/66 36/82/87 23/73/67
f 22/75/69 36/82/88 30/72/70
f 28/77/72 21/78/89 22/75/73
f 28/77/75 38/63/90 37/62/76
